<?xml version="1.0" encoding="UTF-8"?>
<!-- Created with Grafika (https://www.grafika.cc/) -->
<svg xmlns="http://www.w3.org/2000/svg" xmlns:svg="http://www.w3.org/2000/svg" xmlns:xlink="http://www.w3.org/1999/xlink" width="1024" height="1024" viewBox="0 0 1779.418457031 505.354797363" preserveAspectRatio="xMidYMid meet">
	<g transform="matrix(1, 0, 0, 1, 800.3182373046875, 383.9090576171875)">
		<path d="M-659.200073242,-373.909057617 L-660.498168945,-373.559387207 Q-661.796264648,-373.209686279 -673.924072266,-370.914215088 Q-686.051879883,-368.618743896 -695.584533691,-365.424316406 Q-705.1171875,-362.229919434 -712.853637695,-355.192871094 Q-720.590087891,-348.155792236 -723.734436035,-336.02746582 Q-726.87878418,-323.899108887 -727.028320313,-305.033355713 L-727.17791748,-286.167602539 L-725.680236816,-262.809326172 L-724.981933594,-241.747070313 L-725.680786133,-226.974121094 Q-726.379577637,-212.201171875 -715.8984375,-209.056793213 Q-705.417358398,-205.912414551 -695.934204102,-207.459594727 Q-686.451049805,-209.006774902 -676.469177246,-210.354370117 Q-666.487304688,-211.701965332 -654.559082031,-211.901550293 L-638.038818359,-215.295532227" fill-rule="evenodd" style="fill:none;stroke:#000000;stroke-linecap:round;stroke-linejoin:round;stroke-width:20;" />
		<path d="M-675.970458984,-285.468231201 L-675.720825195,-285.468231201 Q-675.471252441,-285.468231201 -687.349975586,-283.971099854 Q-699.22869873,-282.473968506 -708.9609375,-281.875213623 L-723.185180664,-276.085113525" fill-rule="evenodd" style="fill:none;stroke:#000000;stroke-linecap:round;stroke-linejoin:round;stroke-width:20;" />
		<path d="M-601.969055176,-273.594787598 L-602.051696777,-275.079284668 L-600.648925781,-256.852478027 L-599.247070313,-233.100891113 L-599.123535156,-223.369232178 Q-598.999938965,-213.637573242 -595.536193848,-220.936187744 Q-592.07244873,-228.234802246 -592.360900879,-237.306884766 Q-592.649353027,-246.378967285 -590.587463379,-254.584777832 Q-588.52557373,-262.790588379 -581.144287109,-267.285522461 Q-573.762939453,-271.780456543 -567.825317383,-264.440460205 Q-561.887634277,-257.100463867 -560.073303223,-248.894226074 Q-558.258972168,-240.687988281 -558.795043945,-231.533691406 L-553.805358887,-210.58581543" fill-rule="evenodd" style="fill:none;stroke:#000000;stroke-linecap:round;stroke-linejoin:round;stroke-width:20;" />
		<path d="M-508.280090332,-337.593078613 L-508.115203857,-337.098388672 Q-507.950317383,-336.60369873 -508.527679443,-323.696746826 L-509.105041504,-310.789794922 L-510.177124023,-295.202209473 L-511.166503906,-279.615539551 L-513.558654785,-252.151733398 L-513.92980957,-242.87387085 Q-514.30090332,-233.596008301 -511.826538086,-225.431091309 Q-509.352172852,-217.266174316 -504.156768799,-210.544464111 Q-498.961364746,-203.822753906 -491.291137695,-204.729919434 L-484.940979004,-205.967773438" fill-rule="evenodd" style="fill:none;stroke:#000000;stroke-linecap:round;stroke-linejoin:round;stroke-width:20;" />
		<path d="M-488.899414063,-289.429443359 L-488.775878906,-289.635681152 Q-488.65234375,-289.841918945 -501.146820068,-291.202423096 Q-513.641296387,-292.562927246 -521.888427734,-291.037536621 L-526.75402832,-290.089050293" fill-rule="evenodd" style="fill:none;stroke:#000000;stroke-linecap:round;stroke-linejoin:round;stroke-width:20;" />
		<path d="M-435.044799805,-252.317077637 L-434.921234131,-252.152191162 Q-434.797668457,-251.987304688 -426.591400146,-250.172515869 Q-418.385131836,-248.357727051 -408.365020752,-251.161895752 Q-398.344909668,-253.966064453 -394.592254639,-261.430053711 Q-390.839599609,-268.894042969 -396.73638916,-277.182525635 Q-402.633178711,-285.471008301 -411.416320801,-285.924346924 Q-420.199462891,-286.377685547 -428.652832031,-281.016937256 Q-437.106201172,-275.656188965 -442.426086426,-267.862854004 Q-447.74597168,-260.069519043 -449.725189209,-251.368591309 Q-451.704406738,-242.667663574 -448.034423828,-234.172943115 Q-444.364440918,-225.678222656 -437.312927246,-219.575195313 Q-430.261413574,-213.472167969 -421.725372314,-211.616516113 Q-413.189331055,-209.760864258 -405.808013916,-211.822753906 L-390.839599609,-218.420959473" fill-rule="evenodd" style="fill:none;stroke:#000000;stroke-linecap:round;stroke-linejoin:round;stroke-width:20;" />
		<path d="M-339.541503906,-281.75970459 L-339.541503906,-281.511657715 L-337.562744141,-256.852478027 L-335.665771484,-228.317504883 L-335.170623779,-218.420928955 Q-334.675476074,-208.524353027 -333.97454834,-218.091125488 Q-333.273620605,-227.657897949 -331.665527344,-235.369018555 L-330.057434082,-243.08013916 L-326.346130371,-257.924499512 L-323.501068115,-267.120605469 Q-320.656005859,-276.316711426 -313.398254395,-278.873291016 L-307.129882813,-277.801208496" fill-rule="evenodd" style="fill:none;stroke:#000000;stroke-linecap:round;stroke-linejoin:round;stroke-width:20;" />
		<path d="M-190.858703613,-274.112670898 L-190.858703613,-274.292358398 L-191.441619873,-263.135467529 Q-192.024536133,-251.97857666 -190.769805908,-243.823272705 Q-189.515075684,-235.66796875 -186.288909912,-227.82711792 Q-183.062744141,-219.98626709 -174.459747314,-213.982086182 Q-165.856750488,-207.977905273 -157.343078613,-210.486877441 Q-148.829406738,-212.995849609 -143.36328125,-220.478851318 Q-137.897155762,-227.961853027 -136.284057617,-237.864013672 Q-134.670959473,-247.766174316 -134.491760254,-256.100646973 Q-134.312561035,-264.435119629 -136.508117676,-255.159851074 Q-138.703674316,-245.88458252 -138.12121582,-234.592926025 L-137.538757324,-223.301269531 L-136.46270752,-196.864929199 L-135.746002197,-183.467590332 Q-135.029296875,-170.070251465 -135.835845947,-157.927612305 Q-136.64239502,-145.784973145 -139.68939209,-135.792999268 Q-142.73638916,-125.801025391 -152.817718506,-127.100189209 Q-162.899047852,-128.399353027 -167.155883789,-137.002349854 L-169.172729492,-153.133728027" fill-rule="evenodd" style="fill:none;stroke:#000000;stroke-linecap:round;stroke-linejoin:round;stroke-width:20;" />
		<path d="M-73.284606934,-247.945861816 L-73.284606934,-247.27355957 Q-73.284606934,-246.601257324 -76.600616455,-255.65246582 Q-79.916625977,-264.703674316 -89.997955322,-265.33102417 Q-100.079284668,-265.958374023 -105.008392334,-254.711639404 Q-109.9375,-243.464904785 -110.519958496,-234.100280762 Q-111.102416992,-224.735656738 -107.024780273,-217.252655029 Q-102.947143555,-209.76965332 -93.089416504,-205.378570557 Q-83.231689453,-200.987487793 -76.062591553,-207.215759277 Q-68.893493652,-213.444030762 -68.311065674,-224.825012207 Q-67.728637695,-236.205993652 -71.627105713,-245.884552002 L-79.558288574,-254.845397949" fill-rule="evenodd" style="fill:none;stroke:#000000;stroke-linecap:round;stroke-linejoin:round;stroke-width:20;" />
		<path d="M-33.943481445,-266.585266113 L-33.943481445,-267.033447266 L-35.019042969,-255.338531494 Q-36.094604492,-243.643615723 -33.944000244,-234.682250977 Q-31.793395996,-225.72088623 -26.640686035,-219.44821167 Q-21.487976074,-213.175537109 -12.481689453,-214.161254883 Q-3.475402832,-215.146972656 -0.204315186,-224.242584229 Q3.066772461,-233.338195801 4.276611328,-244.49508667 L5.486450195,-255.651977539 L4.769714355,-246.825378418 Q4.052978516,-237.998779297 5.889678955,-228.589233398 Q7.726379395,-219.1796875 12.610565186,-212.592559814 Q17.494750977,-206.005432129 25.784332275,-204.482177734 L36.940734863,-207.081481934" fill-rule="evenodd" style="fill:none;stroke:#000000;stroke-linecap:round;stroke-linejoin:round;stroke-width:20;" />
		<path d="M52.444763184,-262.822021484 L52.803131104,-263.538726807 Q53.161499023,-264.255432129 55.267211914,-255.383422852 L57.372924805,-246.511413574 L62.033508301,-218.283325195 L62.884460449,-208.38067627 Q63.735412598,-198.478027344 64.2734375,-206.588409424 L64.811462402,-214.698791504 L66.200469971,-225.094055176 Q67.589477539,-235.489318848 70.904998779,-246.063751221 Q74.22052002,-256.638183594 80.897003174,-263.224822998 L94.832397461,-260.581054688" fill-rule="evenodd" style="fill:none;stroke:#000000;stroke-linecap:round;stroke-linejoin:round;stroke-width:20;" />
		<path d="M239.291015625,-314.528869629 L240.186889648,-315.559509277 Q241.082763672,-316.590148926 231.135681152,-316.500793457 Q221.188598633,-316.411437988 210.97253418,-313.991790771 Q200.756469727,-311.572143555 192.243286133,-310.22756958 L174.230224609,-310.317443848" fill-rule="evenodd" style="fill:none;stroke:#000000;stroke-linecap:round;stroke-linejoin:round;stroke-width:20;" />
		<path d="M209.538574219,-302.341796875 L209.852539063,-303.372436523 Q210.166503906,-304.403076172 211.420715332,-295.262054443 Q212.674926758,-286.121032715 217.648986816,-273.171875 Q222.623046875,-260.222717285 222.309082031,-245.122436523 Q221.995117188,-230.022155762 216.260009766,-221.105743408 Q210.524902344,-212.189331055 201.16027832,-210.890167236 L186.866455078,-221.061279297" fill-rule="evenodd" style="fill:none;stroke:#000000;stroke-linecap:round;stroke-linejoin:round;stroke-width:20;" />
		<path d="M305.426757813,-304.403076172 L306.54675293,-305.43371582 Q307.666748047,-306.464355469 300.004577637,-312.33380127 Q292.342407227,-318.20324707 282.798583984,-313.588043213 Q273.254760742,-308.972839355 270.790222168,-300.862976074 Q268.325683594,-292.753112793 273.926574707,-284.195037842 Q279.52746582,-275.636962891 288.265197754,-270.887023926 Q297.002929688,-266.137084961 304.530395508,-262.373352051 Q312.057861328,-258.609619141 319.137573242,-253.770355225 Q326.217285156,-248.931091309 329.174499512,-239.25302124 Q332.131713867,-229.574951172 324.20098877,-221.375244141 Q316.270263672,-213.175537109 308.159851074,-211.741607666 Q300.049438477,-210.307678223 291.312194824,-211.786010742 Q282.574951172,-213.264343262 275.271118164,-217.476257324 L275.047607422,-220.613098145" fill-rule="evenodd" style="fill:none;stroke:#000000;stroke-linecap:round;stroke-linejoin:round;stroke-width:20;" />
		<path d="M399.880493164,-285.045959473 L400.014770508,-285.001037598 Q400.149047852,-284.956115723 396.833557129,-294.679595947 Q393.518066406,-304.403076172 386.079956055,-309.421539307 Q378.641845703,-314.440002441 369.18737793,-312.602813721 Q359.732910156,-310.765625 354.356079102,-304.089172363 Q348.979248047,-297.412719727 346.15637207,-288.227264404 Q343.333496094,-279.041809082 344.409057617,-268.825714111 Q345.484619141,-258.609619141 349.651611328,-248.572723389 Q353.818603516,-238.535827637 360.405212402,-230.963470459 Q366.991821289,-223.391113281 375.057312012,-218.417572021 Q383.122802734,-213.444030762 393.876403809,-213.936645508 Q404.630004883,-214.429260254 409.155334473,-223.749450684 Q413.680664063,-233.069641113 413.949707031,-243.41998291 Q414.21875,-253.770324707 412.023193359,-263.717407227 Q409.827636719,-273.664489746 403.554443359,-280.251617432 Q397.28125,-286.838745117 390.694641113,-291.722442627 L382.943115234,-293.290100098" fill-rule="evenodd" style="fill:none;stroke:#000000;stroke-linecap:round;stroke-linejoin:round;stroke-width:20;" />
		<path d="M450.986419678,-319.811309814 L450.946044922,-319.730529785 Q450.905670166,-319.649749756 451.187530518,-309.817565918 L451.469390869,-299.985412598 L453.162506104,-279.515014648 L453.484771729,-258.560668945 L454.773895264,-243.409179688 L455.660797119,-226.726196289 L456.546844482,-209.882446289 L455.700744629,-220.278808594 Q454.854644775,-230.675170898 455.33807373,-241.233123779 L455.821502686,-251.79107666 L456.305389404,-268.95703125 L456.546844482,-283.786315918 L457.030731201,-299.74395752 L457.191864014,-307.722351074 Q457.352996826,-315.700714111 462.712310791,-306.634338379 L468.071624756,-297.567932129 L472.504058838,-289.145629883 Q476.93649292,-280.723327637 483.182739258,-272.099945068 Q489.428985596,-263.4765625 495.997070313,-252.717529297 L502.565155029,-241.958496094 L506.756103516,-234.745391846 Q510.947052002,-227.532287598 516.346740723,-221.528411865 Q521.746459961,-215.524536133 521.746459961,-222.898773193 L521.746459961,-230.273010254 L519.973510742,-248.728088379 L518.28137207,-270.326965332 L516.508300781,-292.490478516 L514.73449707,-312.719421387 L513.32421875,-320.939758301 L511.591644287,-324.001831055" fill-rule="evenodd" style="fill:none;stroke:#000000;stroke-linecap:round;stroke-linejoin:round;stroke-width:20;" />
		<path d="M642.79699707,-310.38180542 L643.11932373,-311.107147217 Q643.441650391,-311.832489014 643.441650391,-304.458251953 L643.441650391,-297.08404541 L643.683532715,-289.750213623 Q643.925415039,-282.416381836 645.456481934,-274.961364746 Q646.987548828,-267.506347656 649.607055664,-259.447174072 Q652.2265625,-251.388000488 656.013977051,-244.618377686 Q659.801391602,-237.848754883 665.161193848,-231.88482666 Q670.520996094,-225.920898438 678.338256836,-223.785247803 Q686.155517578,-221.649597168 693.812011719,-224.590942383 Q701.468505859,-227.532287598 707.270874023,-233.939697266 Q713.073242188,-240.347106934 713.879394531,-250.461120605 L714.685546875,-260.575134277 L714.645141602,-270.689605713 Q714.604736328,-280.804077148 713.476745605,-289.870941162 L712.348754883,-298.937805176 L711.300720215,-306.795440674 L705.659057617,-313.444763184" fill-rule="evenodd" style="fill:none;stroke:#000000;stroke-linecap:round;stroke-linejoin:round;stroke-width:20;" />
		<path d="M752.483520508,-308.045043945 L752.483520508,-308.326934814 Q752.483520508,-308.608825684 754.015014648,-296.237945557 L755.546508789,-283.86706543 L757.319458008,-254.127807617 L758.165588379,-242.563079834 Q759.01171875,-230.998352051 758.084777832,-223.583740234 L757.157836914,-216.169128418 L758.729309082,-224.87286377 Q760.30078125,-233.576599121 760.059265137,-241.99887085 L759.817749023,-250.421142578 L759.737060547,-268.715576172 L758.447021484,-283.624694824 L758.326293945,-292.93347168 Q758.205566406,-302.242248535 760.301269531,-309.696838379 Q762.396972656,-317.151397705 771.624511719,-314.935424805 Q780.852050781,-312.719421387 786.050231934,-305.747833252 Q791.248413086,-298.776245117 793.303710938,-288.299530029 Q795.359008789,-277.822814941 792.175720215,-269.198974609 Q788.992431641,-260.575134277 782.66583252,-255.981567383 Q776.339233398,-251.388000488 780.89239502,-241.837738037 Q785.445556641,-232.287475586 791.973693848,-224.349029541 Q798.501831055,-216.410583496 806.037231445,-212.944976807 L817.924682617,-211.655456543" fill-rule="evenodd" style="fill:none;stroke:#000000;stroke-linecap:round;stroke-linejoin:round;stroke-width:20;" />
		<path d="M855.239624023,-297.647827148 L855.078063965,-297.88973999 Q854.916503906,-298.131652832 854.674987793,-286.445739746 L854.43347168,-274.75982666 L854.43347168,-248.486633301 L853.143554688,-229.225402832 L852.780883789,-221.206176758 Q852.418212891,-213.186950684 858.825561523,-208.95602417 Q865.232910156,-204.725097656 873.614379883,-205.974273682 Q881.995849609,-207.223449707 891.586547852,-207.183044434 Q901.177246094,-207.14263916 908.873718262,-206.981506348 Q916.57019043,-206.820373535 923.864074707,-207.666473389 L924.710571289,-204.644348145" fill-rule="evenodd" style="fill:none;stroke:#000000;stroke-linecap:round;stroke-linejoin:round;stroke-width:20;" />
		<path d="M-768.236083984,-159.190063477 L-769.315490723,-157.389770508 Q-770.394897461,-155.589477539 -776.298583984,-142.630554199 Q-782.202270508,-129.671630859 -785.945617676,-114.553131104 Q-789.688964844,-99.434631348 -790.264709473,-77.477416992 Q-790.840454102,-55.520202637 -785.225463867,-30.538146973 Q-779.610473633,-5.556091309 -769.315490723,17.409118652 Q-759.020507813,40.374328613 -748.005371094,58.228973389 L-736.99029541,76.083618164 L-729.502807617,86.954345703 L-711.792541504,98.97668457" fill-rule="evenodd" style="fill:none;stroke:#000000;stroke-linecap:round;stroke-linejoin:round;stroke-width:20;" />
		<path d="M-712.512695313,52.61315918 L-712.512695313,51.532989502 Q-712.512695313,50.452819824 -710.065246582,68.595306396 Q-707.617797852,86.737792969 -708.481445313,100.632568359 Q-709.345092773,114.52734375 -725.687316895,110.567504883 L-766.362854004,100.703979492" fill-rule="evenodd" style="fill:none;stroke:#000000;stroke-linecap:round;stroke-linejoin:round;stroke-width:20;" />
		<path d="M950.375854492,-157.74987793 L950.592285156,-157.677703857 Q950.80871582,-157.605529785 957.864013672,-144.71875 Q964.919311523,-131.831970215 967.366699219,-111.457733154 Q969.814086914,-91.083496094 968.806152344,-77.549591064 Q967.798217773,-64.015686035 964.414916992,-48.60848999 Q961.031616211,-33.201293945 955.848022461,-18.227142334 Q950.664428711,-3.252990723 944.905151367,9.561584473 Q939.145874023,22.376159668 928.562988281,39.366363525 L917.980102539,56.356567383 L900.413208008,80.834106445 L892.134277344,92.352844238 L891.053344727,99.983886719" fill-rule="evenodd" style="fill:none;stroke:#000000;stroke-linecap:round;stroke-linejoin:round;stroke-width:20;" />
		<path d="M872.912475586,53.909057617 L873.056030273,53.476806641 Q873.199584961,53.044555664 877.447265625,67.227233887 Q881.694946289,81.409912109 884.358886719,95.376831055 Q887.022827148,109.34375 899.333129883,103.296569824 Q911.643432617,97.249389648 924.458740234,92.857299805 L940.008666992,91.057006836" fill-rule="evenodd" style="fill:none;stroke:#000000;stroke-linecap:round;stroke-linejoin:round;stroke-width:20;" />
	</g>
</svg>