<?xml version="1.0" encoding="UTF-8"?>
<!-- Created with Grafika (https://www.grafika.cc/) -->
<svg xmlns="http://www.w3.org/2000/svg" xmlns:svg="http://www.w3.org/2000/svg" xmlns:xlink="http://www.w3.org/1999/xlink" width="1024" height="1024" viewBox="0 0 988.518371582 244.674835205" preserveAspectRatio="xMidYMid meet">
	<g transform="matrix(1, 0, 0, 1, 370.38897705078125, 162.72854614257812)">
		<path d="M-312.448547363,-144.615020752 L-312.558776855,-144.578277588 Q-312.66897583,-144.541534424 -318.93572998,-148.976150513 Q-325.202514648,-153.410766602 -334.145202637,-152.604507446 Q-343.087921143,-151.798248291 -348.585144043,-146.557373047 Q-354.082397461,-141.316497803 -356.83102417,-135.232635498 Q-359.579650879,-129.148773193 -360.20300293,-121.379318237 Q-360.826385498,-113.609863281 -359.360015869,-106.756072998 Q-357.89364624,-99.902282715 -351.810180664,-94.918182373 Q-345.726715088,-89.934082031 -339.239501953,-88.431381226 Q-332.752319336,-86.92868042 -324.432983398,-85.279434204 Q-316.113647461,-83.630187988 -308.820587158,-79.671981812 Q-301.527526855,-75.713775635 -297.606079102,-67.321350098 Q-293.68460083,-58.928924561 -294.783966064,-49.289779663 Q-295.883331299,-39.650634766 -302.62689209,-31.221466064 Q-309.370483398,-22.792297363 -317.506530762,-17.991104126 Q-325.642578125,-13.189910889 -333.778625488,-16.305114746 Q-341.914672852,-19.420318604 -349.024841309,-23.745117188 L-359.726593018,-37.232269287" fill-rule="evenodd" style="fill:none;stroke:#000000;stroke-linecap:round;stroke-linejoin:round;stroke-width:20;" />
		<path d="M-240.61618042,-56.069671631 L-240.725997925,-55.99659729 Q-240.83581543,-55.923522949 -245.8203125,-61.567321777 Q-250.80480957,-67.211120605 -258.940856934,-64.755615234 Q-267.076904297,-62.300109863 -270.155395508,-52.991210938 Q-273.233856201,-43.682312012 -272.683959961,-32.870727539 Q-272.134094238,-22.059143066 -267.149993896,-16.598632813 Q-262.165893555,-11.138122559 -254.396026611,-16.04914856 Q-246.626159668,-20.960174561 -244.353942871,-27.483703613 Q-242.081726074,-34.007232666 -240.98236084,-41.85017395 Q-239.882995605,-49.693115234 -239.662963867,-41.593399048 Q-239.442932129,-33.493682861 -235.484725952,-27.043624878 Q-231.526519775,-20.593566895 -224.416763306,-16.488800049 Q-217.307006836,-12.384033203 -210.380142212,-12.97026062 L-201.400695801,-22.425720215" fill-rule="evenodd" style="fill:none;stroke:#000000;stroke-linecap:round;stroke-linejoin:round;stroke-width:20;" />
		<path d="M-174.867279053,-26.38394165 L-174.940353394,-26.200637817 Q-175.013427734,-26.017333984 -175.343276978,-35.216415405 Q-175.673126221,-44.415496826 -173.694015503,-52.514801025 Q-171.714904785,-60.614105225 -166.730834961,-65.122207642 Q-161.746765137,-69.630310059 -158.741363525,-63.546432495 Q-155.735961914,-57.462554932 -153.793579102,-46.577896118 Q-151.851196289,-35.693237305 -151.814453125,-24.954711914 Q-151.777709961,-14.216186523 -150.568145752,-21.875823975 L-149.358581543,-29.535461426 L-148.515991211,-38.881103516 Q-147.673400879,-48.226745605 -146.024139404,-56.106430054 Q-144.37487793,-63.986114502 -139.866790771,-69.226974487 Q-135.358703613,-74.467834473 -129.824707031,-65.085464478 Q-124.290710449,-55.703094482 -122.898223877,-42.839324951 Q-121.505737305,-29.97555542 -122.055236816,-20.006958008 L-122.604736328,-10.038360596 L-121.432250977,-24.77142334 L-119.379699707,-39.430999756 L-118.060302734,-47.384155273 Q-116.740905762,-55.337310791 -112.67288208,-62.520553589 Q-108.604858398,-69.703796387 -100.761901855,-65.269180298 Q-92.918945313,-60.834564209 -91.306427002,-49.802932739 Q-89.693908691,-38.77130127 -89.693908691,-28.912521362 L-89.693908691,-19.053741455 L-89.180786133,-11.394088745 L-84.195861816,-9.524810791" fill-rule="evenodd" style="fill:none;stroke:#000000;stroke-linecap:round;stroke-linejoin:round;stroke-width:20;" />
		<path d="M-57.442077637,-57.462554932 L-57.442077637,-57.609527588 L-57.662475586,-41.996337891 L-57.368591309,-25.504608154 L-57.368591309,-2.121948242 L-57.882141113,24.778869629 L-58.687988281,48.307678223 L-58.541809082,65.312927246 L-57.845367432,71.946289063 L-55.829528809,71.909973145" fill-rule="evenodd" style="fill:none;stroke:#000000;stroke-linecap:round;stroke-linejoin:round;stroke-width:20;" />
		<path d="M-60.44744873,-56.876342773 L-60.44744873,-56.949417114 Q-60.44744873,-57.022491455 -53.48425293,-62.263366699 Q-46.521057129,-67.504241943 -38.164978027,-65.818649292 Q-29.808898926,-64.133056641 -24.274505615,-57.132720947 Q-18.740112305,-50.132385254 -21.562194824,-42.28944397 Q-24.384277344,-34.446502686 -32.373779297,-32.72416687 Q-40.36328125,-31.001831055 -48.499725342,-32.064468384 L-54.803222656,-34.373809814" fill-rule="evenodd" style="fill:none;stroke:#000000;stroke-linecap:round;stroke-linejoin:round;stroke-width:20;" />
		<path d="M-7.672119141,-144.761169434 L-7.488830566,-144.944458008 Q-7.305541992,-145.127746582 -5.436645508,-133.949966431 Q-3.567749023,-122.772186279 -3.421203613,-114.855773926 L-3.274658203,-106.939361572 L-3.127685547,-89.274383545 L-3.127685547,-69.630310059 L-2.68762207,-49.839263916 L-1.95526123,-34.519989014 L-1.002044678,-25.870788574 L3.395812988,-19.053741455" fill-rule="evenodd" style="fill:none;stroke:#000000;stroke-linecap:round;stroke-linejoin:round;stroke-width:20;" />
		<path d="M32.642333984,-49.839263916 L32.202270508,-49.436340332 Q31.762207031,-49.033416748 38.395935059,-46.761199951 Q45.029663086,-44.488983154 50.783691406,-49.399993896 Q56.537719727,-54.311004639 55.071777344,-61.567321777 Q53.605834961,-68.823638916 44.113616943,-66.95475769 Q34.621398926,-65.085876465 30.919586182,-54.713943481 Q27.217773438,-44.342010498 28.903747559,-32.944198608 Q30.58972168,-21.546386719 39.16583252,-17.258331299 Q47.741943359,-12.970275879 56.02456665,-16.452072144 L66.066650391,-24.478302002" fill-rule="evenodd" style="fill:none;stroke:#000000;stroke-linecap:round;stroke-linejoin:round;stroke-width:20;" />
		<path d="M115.396484375,-66.331787109 L115.469573975,-66.405273438 Q115.542663574,-66.478759766 111.144775391,-71.755966187 Q106.746887207,-77.033172607 100.260101318,-74.06451416 Q93.77331543,-71.095855713 90.804656982,-63.252914429 Q87.835998535,-55.409973145 93.333251953,-49.655960083 Q98.830505371,-43.901947021 105.757354736,-43.242645264 Q112.684204102,-42.583343506 120.307525635,-41.337020874 Q127.930847168,-40.090698242 133.464813232,-35.32623291 Q138.998779297,-30.561767578 139.768310547,-22.388977051 Q140.537841797,-14.216186523 134.600524902,-9.635025024 Q128.663208008,-5.053863525 119.940917969,-5.640487671 Q111.21862793,-6.227111816 104.328521729,-8.645874023 L103.082580566,-12.163604736" fill-rule="evenodd" style="fill:none;stroke:#000000;stroke-linecap:round;stroke-linejoin:round;stroke-width:20;" />
		<path d="M285.522766113,-106.646240234 L285.96282959,-106.865875244 Q286.402893066,-107.085510254 283.544036865,-114.48878479 Q280.685180664,-121.892059326 275.004669189,-125.410598755 Q269.324157715,-128.929138184 262.654052734,-126.98677063 Q255.983947754,-125.044403076 251.475860596,-117.127990723 Q246.967773438,-109.211578369 245.538543701,-94.661819458 Q244.109313965,-80.112060547 244.292602539,-70.986450195 L244.475891113,-61.860839844 L246.014953613,-44.195861816 L247.554016113,-27.263275146 L249.386962891,-12.163604736 L250.889251709,-3.001266479 L252.97857666,-0.582885742" fill-rule="evenodd" style="fill:none;stroke:#000000;stroke-linecap:round;stroke-linejoin:round;stroke-width:20;" />
		<path d="M277.020141602,-64.645812988 L277.093597412,-64.609069824 Q277.167053223,-64.57232666 266.42855835,-64.755615234 Q255.690063477,-64.938903809 245.904754639,-61.970245361 L237.805419922,-60.467956543" fill-rule="evenodd" style="fill:none;stroke:#000000;stroke-linecap:round;stroke-linejoin:round;stroke-width:20;" />
		<path d="M319.167541504,-36.132476807 L319.167541504,-36.095748901 Q319.167541504,-36.059020996 316.748352051,-42.582946777 Q314.329162598,-49.106872559 306.193115234,-48.04385376 Q298.057067871,-46.980834961 293.989044189,-40.310745239 Q289.921020508,-33.640655518 289.224578857,-26.530487061 Q288.528137207,-19.420318604 293.072570801,-12.457122803 Q297.617004395,-5.493927002 306.229858398,-5.493927002 Q314.842712402,-5.493927002 318.87399292,-14.50970459 Q322.905273438,-23.525482178 322.319061279,-32.174682617 L313.230224609,-43.608825684" fill-rule="evenodd" style="fill:none;stroke:#000000;stroke-linecap:round;stroke-linejoin:round;stroke-width:20;" />
		<path d="M350.832397461,-50.498962402 L351.235290527,-50.902297974 Q351.638183594,-51.305633545 350.245727539,-43.352478027 Q348.853271484,-35.39932251 350.026123047,-27.849899292 Q351.198974609,-20.300476074 358.198913574,-15.242492676 Q365.198852539,-10.184509277 370.32989502,-15.755233765 Q375.4609375,-21.325958252 377.14654541,-28.179748535 Q378.83215332,-35.033538818 379.748657227,-41.813430786 Q380.665161133,-48.593322754 378.136169434,-40.127426147 Q375.607177734,-31.661529541 378.795837402,-23.305450439 Q381.98449707,-14.949371338 388.654602051,-13.153564453 L395.177734375,-14.216186523" fill-rule="evenodd" style="fill:none;stroke:#000000;stroke-linecap:round;stroke-linejoin:round;stroke-width:20;" />
		<path d="M412.329956055,-36.939147949 L411.37713623,-36.572555542 Q410.424316406,-36.205963135 411.780456543,-44.012161255 Q413.13659668,-51.818359375 416.654724121,-57.938964844 Q420.172851563,-64.059570313 425.267211914,-59.14855957 Q430.361572266,-54.237548828 431.31439209,-44.525314331 Q432.267211914,-34.813079834 431.790771484,-26.640289307 L431.314331055,-18.467498779 L432.157348633,-25.870773315 Q433.000366211,-33.274047852 435.309326172,-40.164169312 Q437.618286133,-47.054290771 442.382751465,-54.274276733 Q447.147216797,-61.494262695 452.277832031,-56.253387451 Q457.408447266,-51.012512207 459.204284668,-42.76625061 Q461.00012207,-34.519989014 461.256896973,-26.200637817 L464.005493164,-9.964874268" fill-rule="evenodd" style="fill:none;stroke:#000000;stroke-linecap:round;stroke-linejoin:round;stroke-width:20;" />
		<path d="M531.722412109,-44.838439941 L531.722412109,-44.751281738 Q531.722412109,-44.664123535 525.908935547,-53.100494385 Q520.095458984,-61.536865234 509.561035156,-60.88104248 Q499.026641846,-60.225219727 494.218109131,-49.7784729 Q489.409576416,-39.331726074 491.158477783,-30.195678711 Q492.90737915,-21.059631348 499.988250732,-13.934936523 Q507.069122314,-6.810241699 516.161315918,-9.214508057 Q525.253540039,-11.618774414 529.012329102,-19.049255371 Q532.771118164,-26.479736328 535.481689453,-34.872283936 Q538.192260742,-43.264831543 539.634399414,-55.679107666 L541.076538086,-68.093383789 L541.86340332,-91.522644043 L541.776245117,-99.959014893 Q541.689086914,-108.395385742 539.284790039,-96.462158203 Q536.880493164,-84.528930664 536.22467041,-69.79800415 Q535.568847656,-55.067077637 537.230102539,-43.046691895 Q538.891357422,-31.026306152 543.349853516,-23.551544189 Q547.808349609,-16.076782227 555.851318359,-14.765563965 L561.358520508,-17.562744141" fill-rule="evenodd" style="fill:none;stroke:#000000;stroke-linecap:round;stroke-linejoin:round;stroke-width:20;" />
		<path d="M603.409423828,-54.805114746 L603.277954102,-54.892272949 L602.796875,-53.406799316" fill-rule="evenodd" style="fill:none;stroke:#000000;stroke-linecap:round;stroke-linejoin:round;stroke-width:20;" />
		<path d="M607.955078125,-22.45892334 L608.042236328,-22.45892334 L608.129394531,-24.120239258" fill-rule="evenodd" style="fill:none;stroke:#000000;stroke-linecap:round;stroke-linejoin:round;stroke-width:20;" />
	</g>
</svg>