<?xml version="1.0" encoding="UTF-8"?>
<!-- Created with Grafika (https://www.grafika.cc/) -->
<svg xmlns="http://www.w3.org/2000/svg" xmlns:svg="http://www.w3.org/2000/svg" xmlns:xlink="http://www.w3.org/1999/xlink" width="1024" height="1024" viewBox="0 0 1337.099121094 165.648406982" preserveAspectRatio="xMidYMid meet">
	<g transform="matrix(1, 0, 0, 1, 370.38897705078125, 162.72854614257812)">
		<path d="M-312.448547363,-144.615020752 L-312.558776855,-144.578277588 Q-312.66897583,-144.541534424 -318.93572998,-148.976150513 Q-325.202514648,-153.410766602 -334.145202637,-152.604507446 Q-343.087921143,-151.798248291 -348.585144043,-146.557373047 Q-354.082397461,-141.316497803 -356.83102417,-135.232635498 Q-359.579650879,-129.148773193 -360.20300293,-121.379318237 Q-360.826385498,-113.609863281 -359.360015869,-106.756072998 Q-357.89364624,-99.902282715 -351.810180664,-94.918182373 Q-345.726715088,-89.934082031 -339.239501953,-88.431381226 Q-332.752319336,-86.92868042 -324.432983398,-85.279434204 Q-316.113647461,-83.630187988 -308.820587158,-79.671981812 Q-301.527526855,-75.713775635 -297.606079102,-67.321350098 Q-293.68460083,-58.928924561 -294.783966064,-49.289779663 Q-295.883331299,-39.650634766 -302.62689209,-31.221466064 Q-309.370483398,-22.792297363 -317.506530762,-17.991104126 Q-325.642578125,-13.189910889 -333.778625488,-16.305114746 Q-341.914672852,-19.420318604 -349.024841309,-23.745117188 L-359.726593018,-37.232269287" fill-rule="evenodd" style="fill:none;stroke:#000000;stroke-linecap:round;stroke-linejoin:round;stroke-width:20;" />
		<path d="M-251.306518555,-149.197052002 L-250.774536133,-150.506271362 Q-250.242553711,-151.815490723 -249.915252686,-143.016983032 L-249.58795166,-134.218475342 L-248.687164307,-111.627075195 L-246.968566895,-87.235900879 L-246.313049316,-68.001464844 L-245.781066895,-60.143829346 Q-245.249084473,-52.286193848 -243.735183716,-44.305511475 L-242.221282959,-36.324829102 L-241.23890686,-28.426605225 Q-240.256530762,-20.528381348 -232.889862061,-17.9090271 Q-225.523193359,-15.289672852 -218.934234619,-19.014038086 L-213.982696533,-28.630859375" fill-rule="evenodd" style="fill:none;stroke:#000000;stroke-linecap:round;stroke-linejoin:round;stroke-width:20;" />
		<path d="M-225.850524902,-107.453216553 L-225.850524902,-107.657897949 Q-225.850524902,-107.862579346 -233.872253418,-107.453216553 Q-241.893981934,-107.04385376 -250.488265991,-105.243225098 Q-259.082550049,-103.442596436 -267.021789551,-101.928237915 L-277.743560791,-102.705932617" fill-rule="evenodd" style="fill:none;stroke:#000000;stroke-linecap:round;stroke-linejoin:round;stroke-width:20;" />
		<path d="M-198.022186279,-79.706054688 L-198.062774658,-80.319641113 Q-198.103363037,-80.933227539 -195.116119385,-67.223297119 L-192.128875732,-53.513366699 L-190.368804932,-45.90145874 Q-188.608734131,-38.289550781 -187.954116821,-28.46762085 Q-187.299499512,-18.645690918 -185.744125366,-25.930328369 Q-184.188751221,-33.21496582 -183.452087402,-41.645599365 Q-182.715423584,-50.07623291 -180.137542725,-59.202484131 Q-177.559661865,-68.328735352 -172.157287598,-74.713043213 Q-166.75491333,-81.097351074 -159.716018677,-78.232727051 L-153.741088867,-72.830810547" fill-rule="evenodd" style="fill:none;stroke:#000000;stroke-linecap:round;stroke-linejoin:round;stroke-width:20;" />
		<path d="M-127.467224121,-74.958740234 L-127.467224121,-75.121948242 L-127.5078125,-67.10067749 Q-127.548400879,-59.079406738 -126.52545166,-49.748443604 Q-125.502502441,-40.417480469 -121.778137207,-32.682495117 Q-118.053771973,-24.947509766 -110.523468018,-24.047180176 Q-102.993164063,-23.146850586 -98.573608398,-31.495880127 Q-94.154052734,-39.844909668 -92.353424072,-47.088500977 Q-90.55279541,-54.332092285 -90.348114014,-64.195037842 L-90.143432617,-74.057983398 L-90.798034668,-63.458374023 Q-91.452636719,-52.858764648 -89.078979492,-43.650878906 Q-86.705322266,-34.442993164 -83.145080566,-27.854034424 Q-79.584838867,-21.265075684 -72.627532959,-18.400024414 L-73.118041992,-16.845092773" fill-rule="evenodd" style="fill:none;stroke:#000000;stroke-linecap:round;stroke-linejoin:round;stroke-width:20;" />
		<path d="M-30.147033691,-56.214782715 L-30.228637695,-56.092163086 Q-30.310241699,-55.969543457 -35.671600342,-63.213134766 Q-41.032958984,-70.456726074 -51.632568359,-69.556396484 Q-62.232177734,-68.656066895 -65.506134033,-59.488769531 Q-68.780090332,-50.321472168 -65.17880249,-37.634490967 Q-61.577514648,-24.947509766 -53.719909668,-20.650604248 Q-45.862304688,-16.35369873 -40.010009766,-23.433624268 Q-34.157714844,-30.513549805 -31.538330078,-45.246856689 L-28.918945313,-59.980163574 L-26.217590332,-77.004638672 L-25.194641113,-85.271636963 Q-24.171691895,-93.538635254 -24.253723145,-107.371185303 Q-24.335754395,-121.203735352 -26.4637146,-132.130645752 Q-28.591674805,-143.057556152 -31.333648682,-135.650314331 Q-34.075622559,-128.24307251 -34.034606934,-119.935073853 L-33.993591309,-111.627075195 L-32.684326172,-94.35736084 L-30.883728027,-77.331970215 L-29.982971191,-60.470703125 L-29.409942627,-52.940826416 Q-28.836914063,-45.410949707 -25.972290039,-35.793273926 Q-23.107666016,-26.175598145 -15.782043457,-20.978363037 L-4.200500488,-17.335571289" fill-rule="evenodd" style="fill:none;stroke:#000000;stroke-linecap:round;stroke-linejoin:round;stroke-width:20;" />
		<path d="M7.094726563,-51.222229004 L7.013122559,-50.976531982 Q6.931518555,-50.730834961 15.771057129,-50.812896729 Q24.610595703,-50.894958496 32.713928223,-55.232879639 Q40.817260742,-59.570800781 38.443603516,-68.860748291 Q36.069946289,-78.150695801 24.897338867,-74.467346191 Q13.724731445,-70.783996582 10.123443604,-58.833679199 Q6.522155762,-46.883361816 10.246520996,-35.383453369 Q13.97088623,-23.883544922 24.734130859,-20.200653076 Q35.497375488,-16.51776123 43.600250244,-19.300323486 L48.511230469,-28.140319824" fill-rule="evenodd" style="fill:none;stroke:#000000;stroke-linecap:round;stroke-linejoin:round;stroke-width:20;" />
		<path d="M68.073913574,-119.894500732 L68.605895996,-121.040527344 Q69.137878418,-122.186553955 70.774871826,-114.124252319 Q72.411865234,-106.061950684 71.797821045,-98.244903564 L71.183776855,-90.427856445 L69.219055176,-73.648620605 L68.769104004,-65.668365479 Q68.319152832,-57.688110352 69.915130615,-45.533111572 Q71.511108398,-33.378112793 78.714111328,-29.162811279 L92.956481934,-27.894165039" fill-rule="evenodd" style="fill:none;stroke:#000000;stroke-linecap:round;stroke-linejoin:round;stroke-width:20;" />
		<path d="M224.652893066,-123.086425781 L224.857574463,-122.881744385 Q225.062255859,-122.677062988 212.211639404,-120.671737671 Q199.361022949,-118.666412354 186.920196533,-118.420715332 Q174.479370117,-118.175018311 166.744384766,-117.070465088 L162.692687988,-113.1824646" fill-rule="evenodd" style="fill:none;stroke:#000000;stroke-linecap:round;stroke-linejoin:round;stroke-width:20;" />
		<path d="M194.286376953,-113.509765625 L194.245819092,-113.509765625 Q194.20526123,-113.509765625 193.42755127,-100.12713623 Q192.649841309,-86.744506836 194.777801514,-79.173614502 L196.905761719,-71.602722168 L198.829467773,-63.213104248 Q200.753173828,-54.823486328 201.612487793,-46.59753418 Q202.471801758,-38.371582031 200.630126953,-27.56729126 Q198.788452148,-16.763000488 189.744232178,-14.225708008 Q180.700012207,-11.688415527 173.78326416,-15.289703369 L174.724609375,-22.819580078" fill-rule="evenodd" style="fill:none;stroke:#000000;stroke-linecap:round;stroke-linejoin:round;stroke-width:20;" />
		<path d="M288.414672852,-108.353088379 L288.373657227,-108.516738892 Q288.332641602,-108.680389404 283.421661377,-114.696807861 Q278.510681152,-120.713226318 268.565704346,-119.362518311 Q258.620727539,-118.011810303 254.282775879,-109.867462158 Q249.944824219,-101.723114014 252.35949707,-93.701828003 Q254.774169922,-85.680541992 262.263458252,-79.951324463 Q269.752746582,-74.222106934 276.137054443,-70.211456299 Q282.521362305,-66.200805664 288.619354248,-60.020751953 Q294.717346191,-53.840698242 298.196014404,-45.287445068 Q301.674682617,-36.734191895 299.137359619,-29.040222168 Q296.600036621,-21.346252441 289.438049316,-16.722015381 Q282.276062012,-12.09777832 272.413146973,-10.215087891 Q262.550231934,-8.332397461 255.551879883,-11.197021484 Q248.553527832,-14.061645508 244.542907715,-20.855285645 L246.588806152,-27.239562988" fill-rule="evenodd" style="fill:none;stroke:#000000;stroke-linecap:round;stroke-linejoin:round;stroke-width:20;" />
		<path d="M359.788391113,-90.837219238 L361.015991211,-91.532867432 Q362.243591309,-92.228515625 360.647644043,-100.822799683 Q359.051696777,-109.41708374 348.615722656,-112.773101807 Q338.179748535,-116.129119873 330.485778809,-110.767776489 Q322.791809082,-105.406433105 318.862792969,-93.456573486 Q314.933776855,-81.506713867 316.120819092,-67.428436279 Q317.307861328,-53.350158691 320.090881348,-46.270233154 Q322.873901367,-39.190307617 332.163818359,-30.513977051 Q341.453735352,-21.837646484 350.252716064,-21.960266113 Q359.051696777,-22.082885742 364.69934082,-28.631286621 Q370.346984863,-35.1796875 371.492980957,-47.702575684 Q372.638977051,-60.225463867 372.106567383,-72.216339111 Q371.574157715,-84.207214355 368.095947266,-92.310546875 Q364.617736816,-100.413879395 358.315002441,-105.324829102 L348.493103027,-105.570526123" fill-rule="evenodd" style="fill:none;stroke:#000000;stroke-linecap:round;stroke-linejoin:round;stroke-width:20;" />
		<path d="M395.55682373,-108.762451172 L395.55682373,-108.517211914 L397.19329834,-81.097351074 L398.99395752,-63.908752441 L399.649475098,-47.538879395 L399.812683105,-23.556213379 L399.15802002,-45.819396973 L399.485412598,-69.555969238 L398.666687012,-87.563232422 L398.585083008,-95.13458252 Q398.503479004,-102.705932617 403.455444336,-95.052978516 L408.407409668,-87.400024414 L419.784729004,-69.147460938 L433.535217285,-49.502746582 L446.303771973,-31.496337891 L451.296813965,-25.234680176 Q456.289855957,-18.973022461 460.300476074,-26.748596191 Q464.311096191,-34.524169922 462.919372559,-43.978210449 L461.527648926,-53.432250977 L459.399719238,-74.140014648 L458.99029541,-94.030029297 L458.458312988,-102.992645264 L456.125671387,-112.691040039" fill-rule="evenodd" style="fill:none;stroke:#000000;stroke-linecap:round;stroke-linejoin:round;stroke-width:20;" />
		<path d="M546.529052734,-128.64453125 L546.392333984,-128.553405762 Q546.255615234,-128.462280273 548.210083008,-115.237854004 L550.164550781,-102.013427734 L552.618530273,-82.926757813 L554.163452148,-61.93170166 L554.345703125,-43.663024902 L554.20904541,-31.983520508 Q554.072387695,-20.304016113 558.525878906,-29.256652832 Q562.979370117,-38.209289551 568.478210449,-46.571166992 Q573.977050781,-54.933044434 583.838806152,-58.750274658 Q593.700561523,-62.567504883 601.243896484,-56.205596924 Q608.787231445,-49.843688965 612.195983887,-38.255310059 Q615.604736328,-26.666931152 610.923950195,-19.30480957 Q606.243164063,-11.942687988 597.199401855,-10.715667725 Q588.155639648,-9.488647461 578.248840332,-12.715148926 L563.070556641,-21.667724609" fill-rule="evenodd" style="fill:none;stroke:#000000;stroke-linecap:round;stroke-linejoin:round;stroke-width:20;" />
		<path d="M627.692749023,-61.659362793 L627.692749023,-61.386047363 L630.055664063,-34.39251709 L631.237121582,-24.667449951 Q632.418579102,-14.942382813 635.600036621,-25.7578125 L638.781494141,-36.573242188 L642.189758301,-46.93460083 Q645.598022461,-57.295959473 653.959899902,-61.113708496 L658.595092773,-60.02331543" fill-rule="evenodd" style="fill:none;stroke:#000000;stroke-linecap:round;stroke-linejoin:round;stroke-width:20;" />
		<path d="M713.582397461,-48.02545166 L713.673461914,-48.02545166 Q713.764526367,-48.02545166 706.902526855,-53.88772583 Q700.040527344,-59.75 694.359985352,-53.29699707 Q688.679443359,-46.843994141 686.99786377,-36.846069336 Q685.31628418,-26.848144531 690.678955078,-18.622955322 Q696.041625977,-10.397766113 706.357421875,-13.033538818 Q716.673217773,-15.669311523 718.536499023,-27.712249756 Q720.399780273,-39.755187988 716.21862793,-48.616699219 L707.402709961,-53.388122559" fill-rule="evenodd" style="fill:none;stroke:#000000;stroke-linecap:round;stroke-linejoin:round;stroke-width:20;" />
		<path d="M733.578125,-61.294921875 L733.578125,-61.477172852 L732.623962402,-49.389160156 Q731.669799805,-37.301147461 734.986938477,-29.121002197 Q738.304077148,-20.940856934 746.393615723,-17.714355469 Q754.483154297,-14.487854004 758.799987793,-22.304046631 Q763.116821289,-30.120239258 763.707580566,-40.663330078 Q764.298339844,-51.206420898 765.252990723,-40.527160645 Q766.207641602,-29.847900391 773.614868164,-21.531585693 Q781.022094727,-13.215270996 789.383972168,-13.260803223 Q797.745849609,-13.306335449 800.472717285,-23.622161865 Q803.199584961,-33.937988281 803.108459473,-42.344909668 Q803.017333984,-50.751831055 800.608886719,-59.659393311 L792.656494141,-61.93170166" fill-rule="evenodd" style="fill:none;stroke:#000000;stroke-linecap:round;stroke-linejoin:round;stroke-width:20;" />
		<path d="M849.643188477,-60.204589844 L849.098022461,-60.022857666 Q848.552856445,-59.841125488 841.418029785,-64.43081665 Q834.283203125,-69.020507813 828.239196777,-60.93145752 Q822.19519043,-52.842407227 828.33026123,-45.071777344 Q834.465332031,-37.301147461 843.281311035,-31.438354492 Q852.097290039,-25.575561523 851.733825684,-16.486785889 Q851.370361328,-7.398010254 840.645568848,-7.08013916 L823.831176758,-11.306884766" fill-rule="evenodd" style="fill:none;stroke:#000000;stroke-linecap:round;stroke-linejoin:round;stroke-width:20;" />
		<path d="M883.363037109,-46.752868652 L883.181335449,-46.253234863 Q882.999633789,-45.753601074 892.36126709,-47.298522949 Q901.722900391,-48.843444824 902.222473145,-57.704956055 Q902.722045898,-66.566467285 894.133422852,-65.430541992 Q885.544799805,-64.294616699 879.954833984,-54.842407227 Q874.364868164,-45.390197754 873.456237793,-34.528717041 Q872.547607422,-23.667236328 882.454406738,-17.441497803 Q892.361206055,-11.215759277 901.313842773,-15.805450439 L904.540405273,-22.304504395" fill-rule="evenodd" style="fill:none;stroke:#000000;stroke-linecap:round;stroke-linejoin:round;stroke-width:20;" />
		<path d="M924.172729492,-64.203552246 L924.263366699,-64.385253906 Q924.354003906,-64.566955566 924.581237793,-53.88772583 L924.80847168,-43.208496094 L926.171691895,-31.665649414 Q927.534912109,-20.122802734 930.216247559,-28.348022461 Q932.897583008,-36.573242188 934.579162598,-45.253509521 Q936.260742188,-53.933776855 941.668457031,-61.068145752 L956.710083008,-63.385498047" fill-rule="evenodd" style="fill:none;stroke:#000000;stroke-linecap:round;stroke-linejoin:round;stroke-width:20;" />
	</g>
</svg>