<?xml version="1.0" encoding="UTF-8"?>
<!-- Created with Grafika (https://www.grafika.cc/) -->
<svg xmlns="http://www.w3.org/2000/svg" xmlns:svg="http://www.w3.org/2000/svg" xmlns:xlink="http://www.w3.org/1999/xlink" width="1024" height="1024" viewBox="0 0 1348.774291992 170.492874146" preserveAspectRatio="xMidYMid meet">
	<g transform="matrix(1, 0, 0, 1, 370.38897705078125, 163.84095764160156)">
		<path d="M-312.259033203,-144.881713867 L-312.259033203,-145.50793457 Q-312.259033203,-146.134155273 -321.556640625,-151.384735107 Q-330.854248047,-156.635314941 -338.851135254,-150.66192627 Q-346.848022461,-144.688537598 -350.798431396,-135.487518311 Q-354.748840332,-126.286499023 -353.110626221,-117.085510254 Q-351.472412109,-107.884521484 -343.331176758,-98.538635254 Q-335.189941406,-89.192749023 -325.603637695,-86.687896729 Q-316.017333984,-84.183044434 -308.164794922,-76.427093506 Q-300.312255859,-68.671142578 -300.745819092,-55.856689453 Q-301.179382324,-43.042236328 -304.503601074,-34.178741455 Q-307.827819824,-25.315246582 -318.329528809,-20.015838623 Q-328.831268311,-14.716430664 -337.454345703,-20.401123047 Q-346.077453613,-26.08581543 -349.834716797,-34.178741455 L-355.037536621,-38.996276855" fill-rule="evenodd" style="fill:none;stroke:#000000;stroke-linecap:round;stroke-linejoin:round;stroke-width:20;" />
		<path d="M-245.876739502,-146.037536621 L-245.635803223,-145.50793457 Q-245.394866943,-144.97833252 -245.635803223,-133.416290283 L-245.876739502,-121.854248047 L-248.091827393,-88.036865234 L-248.525390625,-72.621002197 Q-248.958953857,-57.20513916 -246.358062744,-46.510803223 Q-243.757171631,-35.816467285 -238.554336548,-26.085296631 Q-233.351501465,-16.354125977 -223.138473511,-19.919250488 L-217.261138916,-28.205383301" fill-rule="evenodd" style="fill:none;stroke:#000000;stroke-linecap:round;stroke-linejoin:round;stroke-width:20;" />
		<path d="M-224.8722229,-100.754211426 L-224.920516968,-100.946868896 Q-224.968811035,-101.139526367 -235.808044434,-100.36895752 Q-246.647277832,-99.598388672 -256.618835449,-97.382263184 L-281.04309082,-96.03326416" fill-rule="evenodd" style="fill:none;stroke:#000000;stroke-linecap:round;stroke-linejoin:round;stroke-width:20;" />
		<path d="M-192.500457764,-65.106018066 L-192.548217773,-65.202606201 Q-192.595977783,-65.299194336 -191.584487915,-55.086151123 L-190.572998047,-44.87310791 L-188.838729858,-33.070678711 Q-187.10446167,-21.268249512 -185.129241943,-30.22833252 L-183.154022217,-39.188415527 L-181.179351807,-47.667175293 Q-179.204681396,-56.145935059 -174.916748047,-64.720733643 Q-170.628814697,-73.295532227 -161.379501343,-75.656005859 L-155.310058594,-74.83770752" fill-rule="evenodd" style="fill:none;stroke:#000000;stroke-linecap:round;stroke-linejoin:round;stroke-width:20;" />
		<path d="M-132.764465332,-73.488708496 L-132.234832764,-73.922271729 Q-131.705200195,-74.355834961 -132.090484619,-63.420013428 Q-132.475769043,-52.484191895 -130.982421875,-39.959503174 Q-129.489074707,-27.434814453 -124.141891479,-20.497711182 Q-118.794708252,-13.56060791 -109.01524353,-15.824493408 Q-99.235778809,-18.088378906 -94.707443237,-26.518829346 Q-90.179107666,-34.949279785 -89.071578979,-43.861602783 Q-87.964050293,-52.773925781 -87.241256714,-42.560913086 Q-86.518463135,-32.347900391 -79.147781372,-24.929443359 L-68.019836426,-23.484375" fill-rule="evenodd" style="fill:none;stroke:#000000;stroke-linecap:round;stroke-linejoin:round;stroke-width:20;" />
		<path d="M-31.793151855,-46.800537109 L-30.974304199,-46.800537109 Q-30.155456543,-46.800537109 -34.876434326,-54.797424316 Q-39.597412109,-62.794311523 -50.050842285,-55.664581299 Q-60.504272461,-48.534851074 -60.070709229,-36.057922363 Q-59.637145996,-23.580993652 -52.748321533,-16.788208008 Q-45.85949707,-9.995422363 -39.163848877,-16.450683594 Q-32.468200684,-22.905944824 -29.336639404,-37.502441406 Q-26.205078125,-52.098937988 -24.711730957,-67.177276611 Q-23.218383789,-82.255615234 -23.603637695,-96.129821777 L-23.988891602,-110.00402832 L-24.807739258,-119.060699463 Q-25.626586914,-128.117370605 -27.457458496,-111.738311768 Q-29.288330078,-95.35925293 -29.384399414,-85.098480225 L-29.48046875,-74.83770752 L-28.806488037,-64.576385498 Q-28.132507324,-54.315063477 -26.253356934,-44.487823486 Q-24.374206543,-34.660583496 -18.063842773,-21.605743408 L-0.672729492,-3.348083496" fill-rule="evenodd" style="fill:none;stroke:#000000;stroke-linecap:round;stroke-linejoin:round;stroke-width:20;" />
		<path d="M18.596435547,-42.753540039 L18.211151123,-42.609191895 Q17.825866699,-42.46484375 26.785949707,-42.319976807 Q35.746032715,-42.175109863 36.757507324,-50.846496582 Q37.768981934,-59.517883301 26.400115967,-61.011230469 Q15.03125,-62.504577637 9.973297119,-51.617584229 Q4.915344238,-40.73059082 8.287322998,-30.373199463 Q11.659301758,-20.015808105 20.523345947,-15.824462891 Q29.387390137,-11.633117676 37.76953125,-16.113708496 L41.527282715,-21.461425781" fill-rule="evenodd" style="fill:none;stroke:#000000;stroke-linecap:round;stroke-linejoin:round;stroke-width:20;" />
		<path d="M65.999328613,-111.448608398 L66.721588135,-113.761322021 Q67.443847656,-116.074035645 67.973999023,-106.776428223 Q68.504150391,-97.478820801 66.721588135,-81.725982666 L64.939025879,-65.973144531 L63.927520752,-51.13571167 Q62.916015625,-36.298278809 65.132171631,-27.675201416 Q67.348327637,-19.052124023 77.127258301,-16.258056641 L85.460571289,-17.89630127" fill-rule="evenodd" style="fill:none;stroke:#000000;stroke-linecap:round;stroke-linejoin:round;stroke-width:20;" />
		<path d="M223.236999512,-117.133300781 L224.200714111,-117.374206543 Q225.164428711,-117.615112305 208.977996826,-118.096984863 L192.791564941,-118.578857422 L179.881072998,-118.578857422 L169.668579102,-118.482299805" fill-rule="evenodd" style="fill:none;stroke:#000000;stroke-linecap:round;stroke-linejoin:round;stroke-width:20;" />
		<path d="M198.091003418,-112.894165039 L197.994415283,-113.520385742 Q197.897827148,-114.146606445 197.127288818,-105.186523438 Q196.356750488,-96.22644043 199.873046875,-79.847381592 Q203.389343262,-63.468322754 203.967803955,-53.785430908 Q204.546264648,-44.102539063 201.414703369,-31.095458984 Q198.28314209,-18.088378906 191.490905762,-12.548553467 Q184.698669434,-7.008728027 175.015777588,-10.573883057 L164.177062988,-28.879333496" fill-rule="evenodd" style="fill:none;stroke:#000000;stroke-linecap:round;stroke-linejoin:round;stroke-width:20;" />
		<path d="M290.294311523,-105.475219727 L290.487487793,-105.66784668 Q290.680664063,-105.860473633 282.924713135,-112.123077393 Q275.168762207,-118.385681152 265.822845459,-117.374206543 Q256.476928711,-116.362731934 249.780761719,-108.703338623 Q243.084594727,-101.043945313 241.735595703,-90.301300049 Q240.38659668,-79.558654785 246.697509766,-70.790679932 Q253.008422852,-62.022705078 264.522155762,-56.916473389 Q276.035888672,-51.810241699 282.298492432,-43.669006348 Q288.561096191,-35.527770996 286.48928833,-25.314727783 Q284.417480469,-15.10168457 274.349334717,-11.729705811 Q264.281188965,-8.357727051 254.02041626,-11.441009521 Q243.759643555,-14.524291992 238.171508789,-21.364837646 L239.519470215,-30.710205078" fill-rule="evenodd" style="fill:none;stroke:#000000;stroke-linecap:round;stroke-linejoin:round;stroke-width:20;" />
		<path d="M370.166625977,-79.847351074 L371.370758057,-81.051483154 Q372.574890137,-82.255615234 365.011566162,-92.46862793 Q357.448242188,-102.681640625 346.416900635,-104.849487305 Q335.385559082,-107.017333984 325.028167725,-99.405731201 Q314.670776367,-91.794128418 310.672088623,-77.534637451 Q306.673400879,-63.275146484 311.442657471,-47.715454102 Q316.211914063,-32.155761719 329.074127197,-25.4112854 Q341.936340332,-18.666809082 353.450073242,-22.424591064 Q364.963806152,-26.182373047 369.106842041,-39.670806885 Q373.24987793,-53.159240723 372.719726563,-61.974975586 Q372.189575195,-70.790710449 370.503601074,-80.280944824 Q368.817626953,-89.771179199 362.747650146,-101.958892822 Q356.67767334,-114.146606445 347.813659668,-117.325927734 L342.611328125,-109.618774414" fill-rule="evenodd" style="fill:none;stroke:#000000;stroke-linecap:round;stroke-linejoin:round;stroke-width:20;" />
		<path d="M395.891052246,-94.492126465 L396.035400391,-95.118347168 Q396.179748535,-95.744567871 396.324615479,-84.809265137 L396.469482422,-73.873962402 L397.046875,-41.789855957 L395.698913574,-19.340820313 L397.625305176,-42.27166748 L398.203796387,-67.804016113 L398.299835205,-76.715789795 Q398.395874023,-85.627563477 406.730285645,-76.474853516 Q415.064697266,-67.322143555 421.760345459,-56.531188965 Q428.455993652,-45.740234375 436.693817139,-35.382873535 Q444.931640625,-25.025512695 452.591552734,-17.703125 Q460.251464844,-10.380737305 460.877655029,-19.919250488 Q461.503845215,-29.457763672 460.347473145,-39.766845703 L459.191101074,-50.075927734 L457.842102051,-80.906616211 L457.697784424,-93.528411865 L455.240722656,-107.981079102" fill-rule="evenodd" style="fill:none;stroke:#000000;stroke-linecap:round;stroke-linejoin:round;stroke-width:20;" />
		<path d="M548.312194824,-119.252807617 L548.312194824,-119.397705078 Q548.312194824,-119.542602539 551.829040527,-103.307891846 Q555.34588623,-87.073181152 556.019897461,-75.415100098 L556.693908691,-63.757019043 L557.272277832,-42.27166748 L556.887023926,-29.55380249 Q556.50177002,-16.8359375 559.585021973,-28.638397217 Q562.668273926,-40.440856934 567.389282227,-48.293395996 Q572.110290527,-56.145935059 583.575195313,-50.847045898 Q595.040100098,-45.548156738 597.545471191,-34.516265869 Q600.050842285,-23.484375 592.583557129,-17.173461914 Q585.116271973,-10.862548828 575.240783691,-12.067230225 Q565.36529541,-13.271911621 557.513244629,-18.61907959 L556.019836426,-17.703125" fill-rule="evenodd" style="fill:none;stroke:#000000;stroke-linecap:round;stroke-linejoin:round;stroke-width:20;" />
		<path d="M623.847717285,-49.20880127 L623.655700684,-52.195495605 L622.980651855,-30.903381348 L623.028930664,-19.196990967 Q623.077209473,-7.490600586 626.401428223,-19.774902344 Q629.725646973,-32.059204102 634.157409668,-39.718566895 Q638.589172363,-47.377929688 647.356628418,-53.544494629 L659.689147949,-53.25579834" fill-rule="evenodd" style="fill:none;stroke:#000000;stroke-linecap:round;stroke-linejoin:round;stroke-width:20;" />
		<path d="M702.852966309,-37.550720215 L702.852966309,-37.309783936 Q702.852966309,-37.068847656 699.191772461,-46.02947998 Q695.530578613,-54.990112305 684.836181641,-52.822235107 Q674.141784668,-50.65435791 670.624938965,-37.117675781 Q667.108093262,-23.580993652 672.551879883,-13.416229248 Q677.995666504,-3.251464844 689.894165039,-7.828094482 Q701.792663574,-12.404724121 706.032287598,-22.472900391 Q710.271911621,-32.54107666 706.369812012,-42.368286133 L694.18157959,-50.846496582" fill-rule="evenodd" style="fill:none;stroke:#000000;stroke-linecap:round;stroke-linejoin:round;stroke-width:20;" />
		<path d="M734.935974121,-50.943054199 L735.995788574,-52.09942627 Q737.055603027,-53.25579834 736.477661133,-42.319976807 Q735.899719238,-31.384155273 742.065734863,-23.628723145 Q748.231750488,-15.873291016 757.52935791,-21.5574646 Q766.826965332,-27.241638184 768.513000488,-36.105651855 Q770.199035645,-44.969665527 769.910339355,-34.516235352 Q769.621643066,-24.062805176 775.354064941,-17.318359375 Q781.086486816,-10.573913574 789.083374023,-15.824493408 Q797.08026123,-21.075073242 799.344177246,-32.203521729 L800.837585449,-47.667663574" fill-rule="evenodd" style="fill:none;stroke:#000000;stroke-linecap:round;stroke-linejoin:round;stroke-width:20;" />
		<path d="M855.369689941,-60.096313477 L855.273620605,-60.192382813 Q855.17755127,-60.288452148 845.879943848,-63.901885986 Q836.582336426,-67.515319824 830.608947754,-59.470123291 Q824.635559082,-51.424926758 829.549194336,-42.898406982 Q834.46282959,-34.371887207 841.544250488,-25.989746094 Q848.625671387,-17.60760498 841.158935547,-11.826324463 Q833.692199707,-6.045043945 825.936279297,-10.718231201 L823.190002441,-17.992858887" fill-rule="evenodd" style="fill:none;stroke:#000000;stroke-linecap:round;stroke-linejoin:round;stroke-width:20;" />
		<path d="M867.027770996,-39.478149414 L868.039794922,-39.478149414 Q869.051818848,-39.478149414 878.589782715,-37.839935303 Q888.127746582,-36.201721191 897.521911621,-38.466156006 Q906.91607666,-40.73059082 908.312866211,-50.461761475 Q909.709655762,-60.192932129 896.606506348,-62.360229492 Q883.503356934,-64.527526855 875.458190918,-54.796905518 Q867.413024902,-45.06628418 867.268676758,-30.95111084 Q867.124328613,-16.8359375 875.217773438,-12.355895996 Q883.311218262,-7.875854492 892.223022461,-14.090179443 L897.08782959,-13.657165527" fill-rule="evenodd" style="fill:none;stroke:#000000;stroke-linecap:round;stroke-linejoin:round;stroke-width:20;" />
		<path d="M932.544006348,-57.013061523 L932.495666504,-57.494934082 Q932.44732666,-57.976806641 931.387573242,-42.513153076 L930.327819824,-27.049499512 L929.798217773,-16.739898682 Q929.268615723,-6.430297852 931.725158691,-15.824493408 Q934.18170166,-25.218688965 938.565673828,-33.359924316 Q942.949645996,-41.501159668 946.080688477,-50.124237061 Q949.211730957,-58.747314453 958.316650391,-59.421813965 L968.385314941,-54.893493652" fill-rule="evenodd" style="fill:none;stroke:#000000;stroke-linecap:round;stroke-linejoin:round;stroke-width:20;" />
	</g>
</svg>