<?xml version="1.0" encoding="UTF-8"?>
<!-- Created with Grafika (https://www.grafika.cc/) -->
<svg xmlns="http://www.w3.org/2000/svg" xmlns:svg="http://www.w3.org/2000/svg" xmlns:xlink="http://www.w3.org/1999/xlink" width="1024" height="1024" viewBox="0 0 1339.139160156 170.45993042" preserveAspectRatio="xMidYMid meet">
	<g transform="matrix(1, 0, 0, 1, 370.38897705078125, 164.42022705078125)">
		<path d="M-307.345947266,-148.350280762 L-307.634643555,-148.783843994 Q-307.923339844,-149.217407227 -318.280700684,-150.759063721 Q-328.638092041,-152.300720215 -337.020263672,-148.157653809 Q-345.402435303,-144.014587402 -350.653564453,-135.247131348 Q-355.904663086,-126.479675293 -353.206665039,-115.592163086 Q-350.508666992,-104.704650879 -341.789520264,-99.116546631 Q-333.070373535,-93.528442383 -324.254638672,-90.734375 Q-315.438903809,-87.940307617 -307.538604736,-81.436767578 Q-299.638305664,-74.933227539 -294.869018555,-65.202575684 Q-290.099761963,-55.471923828 -291.015197754,-44.295166016 Q-291.930633545,-33.118408203 -295.784484863,-24.495849609 Q-299.638305664,-15.873291016 -308.213104248,-10.622161865 Q-316.787902832,-5.371032715 -326.47076416,-8.935638428 Q-336.153656006,-12.500244141 -343.090759277,-18.521942139 Q-350.027893066,-24.543640137 -353.062347412,-33.022399902 L-355.808105469,-44.199157715" fill-rule="evenodd" style="fill:none;stroke:#000000;stroke-linecap:round;stroke-linejoin:round;stroke-width:20;" />
		<path d="M-250.789825439,-154.420227051 L-250.597183228,-154.371948242 Q-250.404541016,-154.323669434 -251.175628662,-142.569000244 L-251.946716309,-130.814331055 L-252.331985474,-116.940643311 Q-252.717254639,-103.066955566 -251.51260376,-90.445678711 Q-250.307952881,-77.824401855 -247.754837036,-67.852294922 L-245.201721191,-57.880187988 L-242.455947876,-46.414733887 Q-239.710174561,-34.949279785 -233.832839966,-26.952392578 Q-227.955505371,-18.955505371 -219.188064575,-19.678314209 L-212.443603516,-27.723510742" fill-rule="evenodd" style="fill:none;stroke:#000000;stroke-linecap:round;stroke-linejoin:round;stroke-width:20;" />
		<path d="M-231.327484131,-105.95703125 L-230.701278687,-106.728118896 Q-230.075073242,-107.499206543 -239.99887085,-106.632080078 Q-249.922668457,-105.764953613 -262.06262207,-104.993865967 L-285.667480469,-100.562133789" fill-rule="evenodd" style="fill:none;stroke:#000000;stroke-linecap:round;stroke-linejoin:round;stroke-width:20;" />
		<path d="M-197.413543701,-82.930664063 L-197.461837769,-82.930664063 Q-197.510131836,-82.930664063 -195.631500244,-69.393951416 L-193.752868652,-55.85723877 L-191.585021973,-43.428070068 Q-189.417175293,-30.998901367 -185.90032959,-21.846160889 Q-182.383483887,-12.69342041 -181.131072998,-23.580444336 L-179.878662109,-34.467468262 L-177.180633545,-55.471923828 L-175.542953491,-64.57635498 L-158.585449219,-69.538269043" fill-rule="evenodd" style="fill:none;stroke:#000000;stroke-linecap:round;stroke-linejoin:round;stroke-width:20;" />
		<path d="M-132.283660889,-70.020141602 L-131.994430542,-70.694641113 Q-131.705200195,-71.369140625 -131.223342896,-59.229187012 Q-130.741485596,-47.089233398 -128.573638916,-38.37008667 Q-126.405792236,-29.650939941 -119.468673706,-22.617248535 Q-112.531555176,-15.583557129 -104.631256104,-21.556945801 Q-96.730957031,-27.530334473 -93.695968628,-37.550720215 Q-90.660980225,-47.571105957 -89.890426636,-57.302276611 L-89.119873047,-67.033447266 L-89.409088135,-55.61630249 Q-89.698303223,-44.199157715 -84.784164429,-33.600830078 L-70.524658203,-21.942199707" fill-rule="evenodd" style="fill:none;stroke:#000000;stroke-linecap:round;stroke-linejoin:round;stroke-width:20;" />
		<path d="M-32.756896973,-60.096313477 L-32.178985596,-60.192382813 Q-31.601074219,-60.288452148 -39.694015503,-65.876556396 Q-47.786956787,-71.464660645 -57.13230896,-66.551055908 Q-66.477661133,-61.637451172 -66.0440979,-51.472717285 Q-65.610534668,-41.307983398 -59.30015564,-33.215026855 Q-52.989776611,-25.122070313 -43.981399536,-27.57913208 Q-34.973022461,-30.036193848 -32.32333374,-38.37008667 Q-29.67364502,-46.703979492 -29.288360596,-57.687561035 L-28.903076172,-68.671142578 L-29.38494873,-91.697570801 L-29.191772461,-113.857910156 L-29.721923828,-124.552246094 Q-30.252075195,-135.246582031 -32.708618164,-125.419372559 Q-35.165161133,-115.592163086 -34.876464844,-100.850799561 Q-34.587768555,-86.109436035 -32.756896973,-70.983337402 Q-30.926025391,-55.85723877 -28.228546143,-45.692504883 Q-25.531066895,-35.527770996 -19.749786377,-26.952941895 L-7.032470703,-16.065429688" fill-rule="evenodd" style="fill:none;stroke:#000000;stroke-linecap:round;stroke-linejoin:round;stroke-width:20;" />
		<path d="M13.008300781,-49.112243652 L12.863952637,-48.582611084 Q12.719604492,-48.052978516 23.317382813,-49.642364502 Q33.915161133,-51.231750488 36.034729004,-62.022705078 Q38.154296875,-72.813659668 28.18270874,-75.511657715 Q18.211120605,-78.209655762 12.863952637,-70.308837891 Q7.516784668,-62.40802002 6.890563965,-50.41293335 Q6.264343262,-38.41784668 11.755889893,-29.93963623 Q17.247436523,-21.461425781 26.111450195,-18.667358398 L36.806335449,-25.122070313" fill-rule="evenodd" style="fill:none;stroke:#000000;stroke-linecap:round;stroke-linejoin:round;stroke-width:20;" />
		<path d="M72.164794922,-119.445983887 L72.791015625,-119.494293213 Q73.417236328,-119.542602539 71.731231689,-106.535522461 L70.045227051,-93.528442383 L68.986022949,-75.704833984 L68.214935303,-62.842102051 Q67.443847656,-49.979370117 69.082061768,-39.718566895 Q70.720275879,-29.457763672 78.668884277,-21.701812744 L90.856567383,-16.161987305" fill-rule="evenodd" style="fill:none;stroke:#000000;stroke-linecap:round;stroke-linejoin:round;stroke-width:20;" />
		<path d="M218.70916748,-123.011169434 L218.95010376,-122.240081787 Q219.191040039,-121.468994141 209.508148193,-119.397705078 Q199.825256348,-117.326416016 188.841674805,-116.796264648 Q177.858093262,-116.266113281 167.404144287,-113.135070801 L165.332885742,-111.738342285" fill-rule="evenodd" style="fill:none;stroke:#000000;stroke-linecap:round;stroke-linejoin:round;stroke-width:20;" />
		<path d="M196.453308105,-112.990722656 L196.549377441,-113.183380127 Q196.645446777,-113.376037598 198.620635986,-100.658172607 L200.595825195,-87.940307617 L202.137481689,-76.233917236 Q203.679138184,-64.527526855 202.860290527,-54.26675415 L202.041442871,-44.005981445 L200.644134521,-34.997589111 Q199.246826172,-25.989196777 196.886352539,-17.510467529 Q194.525878906,-9.031738281 184.650360107,-5.274475098 Q174.774841309,-1.517211914 168.222991943,-8.502075195 L168.030883789,-14.619812012" fill-rule="evenodd" style="fill:none;stroke:#000000;stroke-linecap:round;stroke-linejoin:round;stroke-width:20;" />
		<path d="M288.561096191,-115.592163086 L288.561096191,-115.688232422 Q288.561096191,-115.784301758 278.925994873,-119.686401367 Q269.290893555,-123.588500977 260.234222412,-116.940612793 Q251.17755127,-110.292724609 250.070007324,-101.043426514 Q248.962463379,-91.794128418 255.658111572,-81.195831299 Q262.353759766,-70.59753418 270.929107666,-65.876556396 Q279.504455566,-61.155578613 286.441009521,-55.471405029 Q293.377563477,-49.787231445 295.449371338,-39.285522461 Q297.521179199,-28.783813477 288.994140625,-19.100921631 Q280.467102051,-9.418029785 268.375976563,-7.250183105 Q256.284851074,-5.082336426 249.492095947,-13.078704834 Q242.69934082,-21.075073242 246.553161621,-29.650421143 L251.274108887,-32.637634277" fill-rule="evenodd" style="fill:none;stroke:#000000;stroke-linecap:round;stroke-linejoin:round;stroke-width:20;" />
		<path d="M360.72467041,-91.602050781 L361.92880249,-92.324310303 Q363.13293457,-93.046569824 354.702484131,-98.875610352 Q346.272033691,-104.704650879 335.577667236,-98.634674072 Q324.883300781,-92.564697266 320.017974854,-82.448242188 Q315.152648926,-72.331787109 314.429870605,-61.203857422 Q313.707092285,-50.075927734 318.861633301,-39.863433838 Q324.016174316,-29.650939941 333.988250732,-23.725311279 Q343.960327148,-17.799682617 354.70300293,-17.607055664 Q365.445678711,-17.414428711 369.5887146,-30.806793213 Q373.731750488,-44.199157715 372.431060791,-56.194213867 Q371.130371094,-68.18927002 367.469177246,-77.77557373 Q363.807983398,-87.361877441 355.762786865,-94.973480225 L338.275634766,-101.043945313" fill-rule="evenodd" style="fill:none;stroke:#000000;stroke-linecap:round;stroke-linejoin:round;stroke-width:20;" />
		<path d="M398.203796387,-86.302612305 L398.058898926,-86.302612305 Q397.914001465,-86.302612305 399.359588623,-72.428375244 L400.805175781,-58.554138184 L402.346313477,-41.115844727 L403.6953125,-15.29486084 L403.791870117,-40.827148438 L402.635009766,-61.25213623 L401.623504639,-71.368591309 Q400.611999512,-81.485046387 407.308197021,-73.054595947 Q414.004394531,-64.624145508 420.074371338,-54.459411621 Q426.144348145,-44.294677734 433.46673584,-34.660095215 Q440.789123535,-25.025512695 447.726226807,-18.233276367 Q454.663330078,-11.441040039 457.360809326,-22.424621582 Q460.058288574,-33.408203125 459.287719727,-42.801849365 L458.517150879,-52.195495605 L457.842102051,-74.83770752 L456.926696777,-85.917327881 L450.712890625,-101.429260254" fill-rule="evenodd" style="fill:none;stroke:#000000;stroke-linecap:round;stroke-linejoin:round;stroke-width:20;" />
		<path d="M553.90032959,-128.309509277 L553.659423828,-128.984008789 Q553.418518066,-129.658508301 553.659423828,-115.062011719 L553.90032959,-100.465515137 L555.538024902,-80.52130127 L556.693908691,-59.036010742 L558.042907715,-39.092895508 L559.054870605,-28.301940918 Q560.066833496,-17.510986328 564.595214844,-25.218658447 Q569.123596191,-32.926330566 572.495544434,-42.657501221 Q575.867492676,-52.388671875 581.407287598,-62.456817627 Q586.94708252,-72.524963379 595.618469238,-69.008117676 Q604.289855957,-65.491271973 609.106933594,-54.363342285 Q613.92401123,-43.235412598 610.79296875,-31.288116455 Q607.66192627,-19.340820313 598.749572754,-12.837799072 Q589.837219238,-6.334777832 578.083068848,-7.297973633 L561.511413574,-16.354125977" fill-rule="evenodd" style="fill:none;stroke:#000000;stroke-linecap:round;stroke-linejoin:round;stroke-width:20;" />
		<path d="M626.931091309,-57.301757813 L627.027648926,-57.735321045 Q627.124206543,-58.168884277 628.376647949,-46.270385742 L629.629089355,-34.371887207 L632.037841797,-20.401092529 Q634.446594238,-6.430297852 636.180908203,-18.088378906 L637.915222168,-29.746459961 L640.371765137,-41.597198486 Q642.828308105,-53.447937012 649.765380859,-59.373565674 L657.569641113,-61.25213623" fill-rule="evenodd" style="fill:none;stroke:#000000;stroke-linecap:round;stroke-linejoin:round;stroke-width:20;" />
		<path d="M708.633117676,-44.969665527 L708.633117676,-44.487823486 Q708.633117676,-44.005981445 703.430847168,-51.328369141 Q698.22857666,-58.650756836 688.497375488,-54.941253662 Q678.766174316,-51.231750488 675.05670166,-41.356262207 Q671.347229004,-31.480773926 673.804321289,-21.316558838 Q676.261413574,-11.15234375 685.028869629,-8.165100098 Q693.796325684,-5.177856445 701.889221191,-11.296142578 Q709.982116699,-17.414428711 710.367431641,-27.771789551 Q710.752746582,-38.129150391 705.164611816,-47.860321045 L689.26739502,-52.098937988" fill-rule="evenodd" style="fill:none;stroke:#000000;stroke-linecap:round;stroke-linejoin:round;stroke-width:20;" />
		<path d="M728.480773926,-57.109619141 L728.673400879,-57.109619141 Q728.866027832,-57.109619141 727.951171875,-48.149017334 Q727.036315918,-39.188415527 727.758544922,-30.469268799 Q728.480773926,-21.75012207 736.815185547,-13.367950439 Q745.149597168,-4.985778809 754.013122559,-6.093841553 Q762.876647949,-7.201904297 764.129577637,-17.703643799 Q765.382507324,-28.205383301 768.898803711,-17.992340088 Q772.415100098,-7.779296875 782.579833984,-9.224884033 Q792.744567871,-10.670471191 795.779541016,-19.100402832 Q798.81451416,-27.530334473 798.621887207,-37.40637207 L798.429260254,-47.282409668 L797.754760742,-57.302276611 L795.249450684,-57.20513916" fill-rule="evenodd" style="fill:none;stroke:#000000;stroke-linecap:round;stroke-linejoin:round;stroke-width:20;" />
		<path d="M839.183776855,-56.531188965 L839.376403809,-56.675537109 Q839.569030762,-56.819885254 830.175354004,-59.613952637 Q820.781677246,-62.40802002 819.67364502,-53.207000732 Q818.565612793,-44.005981445 826.755126953,-38.658782959 Q834.944641113,-33.311584473 842.21875,-27.000701904 Q849.492858887,-20.689819336 843.181945801,-12.693450928 Q836.871032715,-4.69708252 827.333007813,-7.587188721 L821.648864746,-10.188598633" fill-rule="evenodd" style="fill:none;stroke:#000000;stroke-linecap:round;stroke-linejoin:round;stroke-width:20;" />
		<path d="M869.918884277,-32.155761719 L869.918884277,-32.685394287 Q869.918884277,-33.215026855 878.44543457,-35.094177246 Q886.971984863,-36.973327637 896.462219238,-40.248718262 Q905.952453613,-43.524108887 908.071960449,-53.688842773 Q910.191467285,-63.85357666 899.593200684,-66.647644043 Q888.994934082,-69.441711426 882.106079102,-62.456817627 Q875.217224121,-55.471923828 873.290344238,-42.513153076 Q871.363464355,-29.554382324 876.036682129,-21.509185791 Q880.709899902,-13.463989258 889.429016113,-11.826293945 L899.304016113,-14.427734375" fill-rule="evenodd" style="fill:none;stroke:#000000;stroke-linecap:round;stroke-linejoin:round;stroke-width:20;" />
		<path d="M924.547546387,-59.421325684 L924.547546387,-60.770324707 L925.414733887,-42.656982422 L926.667175293,-28.157073975 Q927.919616699,-13.657165527 930.087463379,-25.459594727 Q932.255310059,-37.262023926 935.819885254,-48.486541748 Q939.384460449,-59.71105957 948.104125977,-61.974945068 L958.750183105,-60.673706055" fill-rule="evenodd" style="fill:none;stroke:#000000;stroke-linecap:round;stroke-linejoin:round;stroke-width:20;" />
	</g>
</svg>