<?xml version="1.0" encoding="UTF-8"?>
<svg xmlns="http://www.w3.org/2000/svg" xmlns:xlink="http://www.w3.org/1999/xlink" width="250px" height="259px" viewBox="0 0 250 258" version="1.1">
<g id="surface1">
<path style="fill:none;stroke-width:40;stroke-linecap:round;stroke-linejoin:round;stroke:rgb(0%,0%,0%);stroke-opacity:1;stroke-miterlimit:4;" d="M -122.96679 -50.993172 L -124.267148 -51.686256 C -125.128635 -52.159184 -128.891545 -53.390427 -135.54775 -55.379985 C -142.195828 -57.377697 -149.404686 -58.79648 -157.158068 -59.62818 C -164.91145 -60.459881 -172.632323 -57.981087 -180.31256 -52.1918 C -188.000925 -46.402512 -193.308009 -38.02843 -196.233814 -27.08586 C -199.167746 -16.135137 -200.281177 -7.084279 -199.582235 0.0667144 C -198.883292 7.217708 -197.233464 14.319778 -194.640876 21.381078 C -192.04016 28.434224 -188.399159 34.574131 -183.709745 39.792644 C -179.02033 45.01931 -173.380029 49.04735 -166.788841 51.876763 C -160.197654 54.698021 -153.200104 56.630502 -145.779939 57.66605 C -138.359773 58.693445 -131.272824 58.758676 -124.519092 57.861744 C -117.757233 56.964813 -111.62117 55.016024 -106.09465 52.023533 C -100.576258 49.031042 -96.000625 45.084542 -92.375878 40.192186 C -88.743004 35.29983 -86.386106 29.616544 -85.288929 23.126018 C -84.191752 16.635493 -84.273024 9.63127 -85.532746 2.11335 C -86.800594 -5.40457 -89.295656 -12.563718 -93.026056 -19.347784 C -96.74833 -26.140005 -101.145164 -31.929293 -106.200304 -36.715647 C -111.255445 -41.510156 -116.546275 -45.350655 -122.072794 -48.245299 C -127.591187 -51.139943 -134.978844 -53.137655 -144.227637 -54.238435 L -165.090249 -47.299444 " transform="matrix(0.480637,0,0,0.479064,199.524266,133.440696)"/>
<path style="fill:none;stroke-width:40;stroke-linecap:round;stroke-linejoin:round;stroke:rgb(0%,0%,0%);stroke-opacity:1;stroke-miterlimit:4;" d="M -243.453049 -242.749059 L -244.151991 -241.599355 C -244.615244 -240.832886 -248.23999 -239.202101 -255.026232 -236.706999 C -261.8206 -234.211898 -268.086698 -230.770941 -273.848908 -226.375975 C -279.60299 -221.981008 -285.51149 -217.14573 -291.56628 -211.853832 L -300.644402 -203.911907 L -309.478706 -196.426603 C -315.370951 -191.4364 -321.474505 -185.386187 -327.797494 -178.259655 C -334.120483 -171.141277 -339.955837 -163.492894 -345.319812 -155.306352 L -353.349521 -143.026539 L -361.590537 -129.645946 C -367.076421 -120.733705 -371.871489 -111.748078 -375.959488 -102.69722 C -380.055615 -93.646361 -383.712871 -84.212268 -386.939383 -74.403095 L -391.783215 -59.677104 L -396.171922 -42.105393 L -399.869814 -23.840598 L -402.161694 -5.575803 L -403.364525 25.368348 L -403.462052 54.021245 L -403.210107 68.192769 C -403.047563 77.64317 -401.446497 86.873414 -398.423166 95.891657 C -395.391707 104.9099 -391.929505 113.194289 -388.03656 120.744825 C -384.143614 128.303514 -380.372577 134.924503 -376.707194 140.615943 C -373.049938 146.29923 -368.677486 151.362818 -363.581709 155.782246 C -358.49406 160.209828 -352.837505 164.702642 -346.612043 169.260686 L -337.281977 176.101831 L -328.89467 182.388508 C -323.303133 186.579626 -317.004526 190.787052 -309.982595 195.010786 C -302.960664 199.242674 -295.605516 203.115789 -287.917152 206.646439 L -276.392732 211.930183 L -266.306834 216.528998 C -259.58561 219.58672 -252.701842 222.301977 -245.647402 224.658462 C -238.592962 227.023101 -231.07527 228.922966 -223.086198 230.349903 C -215.105253 231.784994 -207.213708 232.991775 -199.427817 233.994708 C -191.641926 234.989487 -183.441546 235.976112 -174.826677 236.938275 C -166.20368 237.900439 -157.255595 238.23475 -147.974292 237.941208 C -138.69299 237.639513 -129.590487 236.473501 -120.67491 234.443174 C -111.751206 232.412846 -102.819375 230.830984 -93.871289 229.697589 C -84.923203 228.572347 -75.804446 227.202487 -66.523143 225.612472 C -57.233714 224.014302 -48.318137 221.519201 -39.768286 218.119013 C -31.218434 214.72698 -23.310635 210.723402 -16.061141 206.091972 C -8.80352 201.468696 -1.3671 195.948487 6.248119 189.523193 L 17.675011 179.893406 L 26.858787 172.204254 C 32.986722 167.083588 37.976844 162.093385 41.837281 157.233645 C 45.697718 152.373905 49.371228 146.503078 52.865939 139.61301 L 58.108005 129.281986 L 62.748657 118.902037 C 65.845133 111.979354 68.738429 104.624512 71.428544 96.837513 C 74.126786 89.058667 76.337394 79.918115 78.068495 69.44032 L 80.661083 53.71955 L 83.757559 35.454755 L 86.25262 17.083959 L 89.747331 -0.879141 L 91.990448 -16.550987 C 93.493987 -27.004321 94.355474 -36.88688 94.591163 -46.198664 L 94.940634 -60.174494 L 93.892221 -75.145102 C 93.193279 -85.133662 91.714122 -94.282368 89.446624 -102.599372 C 87.187252 -110.916377 84.058267 -118.499529 80.067794 -125.356981 C 76.069195 -132.214433 71.265999 -139.063731 65.641952 -145.921183 C 60.017906 -152.770481 53.865589 -159.179467 47.176874 -165.131834 C 40.48816 -171.092354 33.116758 -177.028412 25.062668 -182.956317 C 17.016705 -188.876067 8.856961 -194.502276 0.607818 -199.818636 C -7.641326 -205.14315 -16.174922 -210.418741 -24.992972 -215.645407 C -33.811022 -220.872074 -42.596563 -225.878585 -51.349595 -230.66494 C -60.0945 -235.459449 -68.985695 -239.748414 -77.998799 -243.548143 C -87.02003 -247.339719 -95.886843 -251.384067 -104.599239 -255.673032 C -113.319762 -259.961997 -121.96714 -262.872949 -130.557628 -264.405887 C -139.139988 -265.938825 -147.909274 -266.73791 -156.85736 -266.803141 C -165.805446 -266.868373 -174.590987 -267.284223 -183.205856 -268.050692 C -191.828852 -268.817161 -200.614393 -268.678545 -209.562479 -267.65115 C -218.510565 -266.615601 -226.865362 -265.172356 -234.618745 -263.305107 C -242.372127 -261.446012 -249.906074 -258.282288 -257.228712 -253.822091 C -264.543224 -249.370047 -270.614268 -245.138159 -275.441846 -241.150889 L -271.40261 -229.466313 " transform="matrix(0.480637,0,0,0.479064,199.524266,133.440696)"/>
<path style="fill:none;stroke-width:25;stroke-linecap:round;stroke-linejoin:round;stroke:rgb(0%,0%,0%);stroke-opacity:1;stroke-miterlimit:4;" d="M -178.264497 -106.994339 L -178.670859 -107.940194 C -178.93093 -108.568046 -184.042961 -107.70373 -193.990697 -105.347246 C -203.938432 -102.982607 -212.138813 -99.835191 -218.591837 -95.913153 C -225.052989 -91.98296 -230.920853 -87.457531 -236.211683 -82.336865 C -241.502513 -77.208046 -246.216309 -71.606298 -250.336817 -65.515315 C -254.465452 -59.424332 -258.260871 -52.868576 -261.714946 -45.848045 C -265.177148 -38.827514 -267.989171 -32.222834 -270.151016 -26.034004 L -270.898722 -4.475023 " transform="matrix(0.480637,0,0,0.479064,199.524266,133.440696)"/>
<path style="fill:none;stroke-width:25;stroke-linecap:round;stroke-linejoin:round;stroke:rgb(0%,0%,0%);stroke-opacity:1;stroke-miterlimit:4;" d="M -216.096776 -157.100216 L -216.096776 -157.198063 C -216.096776 -157.263295 -219.046962 -155.885281 -224.93108 -153.055869 C -230.823326 -150.226456 -236.447372 -146.981194 -241.80322 -143.328235 C -247.159068 -139.667122 -253.018805 -134.888921 -259.374302 -129.001786 C -265.7298 -123.114651 -271.833354 -116.208275 -277.684963 -108.290813 C -283.544699 -100.365197 -288.372277 -92.186808 -292.159568 -83.731187 C -295.954987 -75.283719 -298.62072 -67.447796 -300.14864 -60.223417 L -303.342644 -27.232631 " transform="matrix(0.480637,0,0,0.479064,199.524266,133.440696)"/>
<path style="fill:none;stroke-width:25;stroke-linecap:round;stroke-linejoin:round;stroke:rgb(0%,0%,0%);stroke-opacity:1;stroke-miterlimit:4;" d="M -246.443871 -201.522807 L -248.345644 -201.074341 C -249.605366 -200.772646 -252.783115 -199.027706 -257.870764 -195.831366 C -262.96654 -192.635027 -269.40331 -187.807903 -277.189201 -181.358147 C -284.975093 -174.900237 -292.159568 -167.78186 -298.750756 -159.99486 C -305.341943 -152.20786 -310.844082 -144.469784 -315.273425 -136.788786 C -319.69464 -129.099633 -323.343769 -121.646944 -326.204556 -114.43072 C -329.065342 -107.206341 -331.024006 -100.283657 -332.088674 -93.662669 L -332.088674 -69.755357 " transform="matrix(0.480637,0,0,0.479064,199.524266,133.440696)"/>
<path style="fill:none;stroke-width:25;stroke-linecap:round;stroke-linejoin:round;stroke:rgb(0%,0%,0%);stroke-opacity:1;stroke-miterlimit:4;" d="M -51.495886 25.172654 L -50.796943 24.822035 C -50.333691 24.585571 -51.048888 28.295608 -52.942534 35.952144 C -54.844306 43.600527 -58.452799 50.987985 -63.776138 58.114516 C -69.099477 65.232894 -75.341193 72.082192 -82.49316 78.670565 C -89.645127 85.258937 -96.236314 90.151293 -102.258595 93.347632 L -129.753031 104.330971 " transform="matrix(0.480637,0,0,0.479064,199.524266,133.440696)"/>
<path style="fill:none;stroke-width:25;stroke-linecap:round;stroke-linejoin:round;stroke:rgb(0%,0%,0%);stroke-opacity:1;stroke-miterlimit:4;" d="M -17.158318 15.192248 L -17.158318 15.387942 C -17.158318 15.518405 -18.304258 19.546445 -20.604265 27.463907 C -22.896146 35.389523 -26.05764 43.037906 -30.088749 50.425364 C -34.11173 57.812821 -39.63825 65.934132 -46.660181 74.781142 C -53.673985 83.628152 -61.216059 92.515932 -69.262021 101.436327 C -77.316111 110.348568 -84.533096 117.768641 -90.92923 123.696546 C -97.317237 129.616296 -104.721148 134.092802 -113.132836 137.117909 C -121.552651 140.143015 -128.761509 142.874581 -134.751281 145.304451 L -145.324814 150.547425 " transform="matrix(0.480637,0,0,0.479064,199.524266,133.440696)"/>
<path style="fill:none;stroke-width:25;stroke-linecap:round;stroke-linejoin:round;stroke:rgb(0%,0%,0%);stroke-opacity:1;stroke-miterlimit:4;" d="M 29.158794 18.584281 L 29.752083 17.181806 L 22.770788 34.158281 L 18.373954 44.636076 C 15.448149 51.623991 11.473931 59.49253 6.4513 68.241693 C 1.420541 76.990856 -4.666758 86.131407 -11.818724 95.647039 C -18.970691 105.162671 -26.789091 114.539687 -35.273925 123.794393 C -43.758758 133.040946 -52.349245 141.463951 -61.029132 149.047103 C -69.717147 156.630255 -77.568056 162.835392 -84.589987 167.662517 C -91.611918 172.489641 -97.98367 176.028445 -103.705243 178.295237 C -109.426817 180.553874 -116.083022 182.486355 -123.665732 184.084525 L -132.150566 186.082237 " transform="matrix(0.480637,0,0,0.479064,199.524266,133.440696)"/>
</g>
</svg>
