<?xml version="1.0" encoding="UTF-8"?>
<svg xmlns="http://www.w3.org/2000/svg" xmlns:xlink="http://www.w3.org/1999/xlink" width="250px" height="259px" viewBox="0 0 249 246" version="1.1">
<g id="surface1">
<path style="fill:none;stroke-width:25;stroke-linecap:round;stroke-linejoin:round;stroke:rgb(0%,0%,0%);stroke-opacity:1;stroke-miterlimit:4;" d="M -217.900148 -103.99732 L -217.900148 -103.848659 C -217.900148 -103.749552 -221.818866 -100.421209 -229.67287 -93.863631 C -237.526875 -87.306052 -243.549936 -81.301821 -247.742052 -75.850937 C -251.934169 -70.391794 -255.761753 -64.197607 -259.224806 -57.276636 C -262.679574 -50.355665 -265.728386 -42.873088 -268.354672 -34.820646 C -270.980959 -26.768203 -272.92789 -19.252591 -274.195467 -12.265548 L -278.685837 14.988872 " transform="matrix(0.471495,0,0,0.472974,195.731046,122.973157)"/>
<path style="fill:none;stroke-width:25;stroke-linecap:round;stroke-linejoin:round;stroke:rgb(0%,0%,0%);stroke-opacity:1;stroke-miterlimit:4;" d="M -228.976946 -148.314659 L -231.172422 -146.167341 C -232.638834 -144.738549 -237.841698 -140.08052 -246.797583 -132.193256 C -255.745184 -124.305992 -262.812131 -117.674083 -268.00671 -112.281012 C -273.193004 -106.88794 -278.205317 -100.784602 -283.02708 -93.962738 C -287.857127 -87.140874 -292.181801 -79.270128 -296.009385 -70.358758 C -299.828685 -61.43913 -302.927206 -52.469948 -305.288378 -43.451212 C -307.64955 -34.440736 -309.24852 -25.934053 -310.077001 -17.947682 C -310.913768 -9.96957 -311.311439 -1.182084 -311.2783 8.398258 L -310.433248 30.565186 " transform="matrix(0.471495,0,0,0.472974,195.731046,122.973157)"/>
<path style="fill:none;stroke-width:25;stroke-linecap:round;stroke-linejoin:round;stroke:rgb(0%,0%,0%);stroke-opacity:1;stroke-miterlimit:4;" d="M -248.239141 -184.150092 L -250.384908 -181.160365 C -251.818181 -179.161707 -254.982981 -175.63515 -259.871022 -170.572435 L -267.211368 -162.990751 L -276.689196 -152.055947 C -283.01051 -144.771584 -289.331824 -136.752178 -295.653138 -128.005986 C -301.974452 -119.251536 -307.765538 -109.93548 -313.026396 -100.049558 C -318.278968 -90.171896 -322.860471 -79.988653 -326.754334 -69.50809 C -330.639913 -59.027526 -333.688724 -48.844284 -335.8842 -38.966621 C -338.079676 -29.0807 -339.579228 -19.384733 -340.37457 -9.862204 L -341.575868 4.409202 L -342.271793 27.864521 L -342.172375 37.849549 L -337.781423 65.797718 " transform="matrix(0.471495,0,0,0.472974,195.731046,122.973157)"/>
<path style="fill:none;stroke-width:25;stroke-linecap:round;stroke-linejoin:round;stroke:rgb(0%,0%,0%);stroke-opacity:1;stroke-miterlimit:4;" d="M -55.592335 -16.155497 L -55.086961 -15.957283 C -54.755568 -15.825141 -54.854986 -10.58073 -55.393499 -0.232309 C -55.923727 10.116112 -57.489557 18.96141 -60.082704 26.320104 C -62.675852 33.670538 -65.608676 40.930125 -68.864608 48.082345 C -72.128826 55.234566 -76.155246 62.337233 -80.943869 69.390347 L -95.119188 84.661081 " transform="matrix(0.471495,0,0,0.472974,195.731046,122.973157)"/>
<path style="fill:none;stroke-width:25;stroke-linecap:round;stroke-linejoin:round;stroke:rgb(0%,0%,0%);stroke-opacity:1;stroke-miterlimit:4;" d="M -21.450611 -53.890481 L -21.798574 -53.28758 C -22.030548 -52.891152 -21.715725 -48.167053 -20.854105 -39.115282 L -19.553389 -25.537625 L -19.0563 -12.513316 C -18.724907 -3.824937 -19.917921 5.738887 -22.65191 16.186415 C -25.377614 26.633942 -29.619439 37.700889 -35.377386 49.378995 C -41.135332 61.057101 -47.241241 71.768914 -53.695112 81.522693 C -60.148983 91.268213 -66.33774 99.089406 -72.261383 104.978012 C -78.185025 110.866619 -84.506339 115.855004 -91.225325 119.951426 L -101.009691 127.087128 " transform="matrix(0.471495,0,0,0.472974,195.731046,122.973157)"/>
<path style="fill:none;stroke-width:25;stroke-linecap:round;stroke-linejoin:round;stroke:rgb(0%,0%,0%);stroke-opacity:1;stroke-miterlimit:4;" d="M 18.879869 -82.235078 L 19.327249 -83.036193 C 19.625502 -83.564763 20.354566 -78.758075 21.522725 -68.607868 C 22.682599 -58.46592 23.022276 -47.96058 22.516903 -37.116624 C 22.019814 -26.272669 20.371135 -13.843001 17.579153 0.164119 C 14.78717 14.171239 10.943016 28.013181 6.04669 41.689945 C 1.158649 55.366709 -4.301044 67.391689 -10.324105 77.773146 C -16.347165 88.154602 -22.767897 97.189855 -29.5863 104.878905 L -39.818047 116.408351 L -58.2849 136.370149 L -73.860352 153.441327 L -81.78892 161.774572 L -89.526937 162.724348 " transform="matrix(0.471495,0,0,0.472974,195.731046,122.973157)"/>
<path style="fill:none;stroke-width:40;stroke-linecap:round;stroke-linejoin:round;stroke:rgb(0%,0%,0%);stroke-opacity:1;stroke-miterlimit:4;" d="M -159.798739 -56.079094 L -161.397709 -56.533334 C -162.46645 -56.830655 -167.205364 -55.434898 -175.622736 -52.337805 C -184.040109 -49.248971 -191.231328 -43.286034 -197.18811 -34.473771 C -203.136607 -25.65325 -207.096749 -15.874694 -209.06025 -5.121587 C -211.023751 5.623262 -210.476954 15.723915 -207.411572 25.172114 C -204.354475 34.620313 -199.267599 43.201326 -192.142658 50.923412 C -185.026002 58.645498 -176.252382 63.799061 -165.83837 66.39236 C -155.424357 68.993919 -147.040124 69.357311 -140.685671 67.490796 C -134.331218 65.63254 -128.026473 62.799732 -121.771438 59.00889 C -115.516403 55.218048 -109.642469 50.526984 -104.149636 44.935699 C -98.665089 39.344413 -94.166434 33.191521 -90.678527 26.468764 C -87.182335 19.746007 -85.019998 12.593787 -84.191516 5.003843 C -83.35475 -2.577841 -83.570155 -10.382516 -84.837732 -18.401922 C -86.097024 -26.421329 -88.400203 -33.986495 -91.722413 -41.10568 C -95.052909 -48.233124 -99.49357 -54.270391 -105.052681 -59.22574 C -110.603507 -64.181089 -117.380486 -67.393807 -125.367048 -68.855635 C -133.35361 -70.325722 -141.348456 -70.656079 -149.368157 -69.854964 C -157.387858 -69.062108 -165.672673 -66.667023 -174.222603 -62.669708 L -182.159456 -52.891152 " transform="matrix(0.471495,0,0,0.472974,195.731046,122.973157)"/>
<path style="fill:none;stroke-width:40;stroke-linecap:round;stroke-linejoin:round;stroke:rgb(0%,0%,0%);stroke-opacity:1;stroke-miterlimit:4;" d="M -284.178669 -215.294461 L -282.977371 -215.294461 C -282.182029 -215.294461 -284.858024 -214.080401 -291.013642 -211.65228 C -297.169259 -209.224159 -303.026624 -205.648048 -308.585735 -200.923949 C -314.136561 -196.199849 -319.115735 -191.541821 -323.506687 -186.949864 C -327.897639 -182.357907 -331.990337 -177.650326 -335.784783 -172.81886 C -339.579228 -167.995654 -342.884869 -162.875126 -345.718276 -157.449019 L -349.960101 -149.313988 L -358.54317 -130.747946 L -362.735286 -120.812471 C -365.527269 -114.19708 -367.722745 -107.788162 -369.321714 -101.602234 L -371.716026 -92.319214 L -377.507112 -68.756528 L -383.298198 -47.696295 L -386.496136 -35.720868 C -388.625334 -27.734497 -390.14974 -19.384733 -391.085924 -10.663319 L -392.486058 2.410544 L -393.430526 12.296466 C -394.060172 18.878821 -394.341856 26.600907 -394.275578 35.454464 C -394.209299 44.299762 -393.778489 51.757563 -392.983146 57.811347 C -392.179519 63.865132 -390.870519 69.97673 -389.039574 76.129621 L -386.289016 85.363089 L -383.049653 94.249681 C -380.887316 100.171324 -378.087049 106.043412 -374.66542 111.865948 L -363.679755 130.531096 L -357.847245 140.458312 L -351.60878 150.740662 C -347.449802 157.595561 -342.802021 163.789748 -337.682005 169.306703 C -332.553705 174.831917 -327.267993 179.539499 -321.8083 183.437707 L -313.622902 189.27676 L -302.943775 197.164024 C -295.818834 202.416694 -288.519912 206.959098 -281.030439 210.782975 C -273.549251 214.615112 -266.059778 218.257294 -258.570306 221.717779 C -251.089118 225.178265 -244.312139 227.936742 -238.264224 230.001471 C -232.208024 232.0662 -225.480754 234.296107 -218.098984 236.691192 C -210.708928 239.086278 -203.24431 241.415292 -195.688559 243.678235 C -188.132807 245.941177 -180.850455 246.750551 -173.824931 246.122874 C -166.807693 245.486937 -159.682752 245.726446 -152.466678 246.824881 C -145.242319 247.915058 -137.504302 247.733362 -129.260911 246.271534 C -121.009235 244.809706 -112.972964 242.827566 -105.152099 240.333374 C -97.331233 237.839182 -90.239432 235.625792 -83.884978 233.693206 C -77.530525 231.768879 -71.325199 229.588525 -65.268999 227.160404 C -59.212799 224.724024 -51.930446 221.899475 -43.413656 218.670239 C -34.896866 215.441003 -27.722216 211.964 -21.897991 208.239229 C -16.073766 204.514459 -9.653035 201.070491 -2.635796 197.907326 C 4.381442 194.744162 10.371364 191.135016 15.333968 187.079889 C 20.288287 183.016502 25.151474 178.531911 29.906958 173.601339 C 34.662442 168.679025 39.707894 164.169658 45.026745 160.081495 C 50.353881 155.985073 54.844251 151.21142 58.50614 145.752277 L 63.998972 137.567692 L 69.682355 127.83869 C 73.476801 121.347182 76.724448 114.21148 79.417013 106.423322 C 82.109578 98.635165 84.271915 91.416873 85.904023 84.760188 C 87.536132 78.111761 89.565912 71.273379 91.993362 64.253301 C 94.420813 57.233223 96.516871 49.49462 98.281537 41.04575 C 100.046203 32.58862 101.131513 24.792204 101.529185 17.631725 L 102.125691 6.903394 L 102.921034 -13.363984 L 102.970742 -25.537625 C 103.003882 -33.656139 102.241679 -41.345189 100.675849 -48.596516 L 98.331246 -59.473508 L 92.241907 -79.137985 L 88.447461 -89.618548 C 85.920593 -96.605591 82.639806 -104.129462 78.621671 -112.181905 C 74.595251 -120.234347 70.635109 -127.386568 66.741246 -133.646825 C 62.847383 -139.898824 58.820963 -145.671806 54.661985 -150.957512 C 50.503008 -156.251476 44.645644 -161.272897 37.089892 -166.030032 C 29.542426 -170.795426 23.502796 -175.313053 18.979287 -179.607689 C 14.447493 -183.902325 8.946375 -188.263032 2.459365 -192.681551 C -4.03593 -197.10833 -11.119447 -200.254977 -18.807755 -202.121492 C -26.496064 -203.979747 -33.794986 -206.143583 -40.712807 -208.60474 C -47.638912 -211.065897 -55.004113 -213.766562 -62.824978 -216.690218 C -70.645844 -219.622133 -78.798102 -221.670344 -87.281753 -222.834851 C -95.765403 -223.999358 -104.298763 -224.940874 -112.890116 -225.675918 C -121.473185 -226.410961 -129.260911 -227.64154 -136.24501 -229.367653 C -143.229109 -231.102025 -150.652304 -232.66296 -158.506308 -234.058717 C -166.360313 -235.462732 -174.529141 -237.106256 -183.012791 -239.005807 C -191.496442 -240.897099 -199.043909 -241.384375 -205.671761 -240.451117 C -212.291328 -239.51786 -220.079054 -238.667191 -229.026655 -237.907371 C -237.974255 -237.139292 -245.596285 -236.222553 -251.88446 -235.157152 C -258.172634 -234.091752 -264.924759 -232.13439 -272.149118 -229.268546 C -279.365192 -226.410961 -285.454531 -223.115654 -290.417135 -219.390883 L -302.844358 -201.419484 " transform="matrix(0.471495,0,0,0.472974,195.731046,122.973157)"/>
</g>
</svg>
